<?xml version="1.0" encoding="UTF-8" standalone="no"?>
<!DOCTYPE svg PUBLIC "-//W3C//DTD SVG 1.0//EN" "http://www.w3.org/TR/2001/PR-SVG-20010719/DTD/svg10.dtd">
<svg width="89cm" height="55cm" viewBox="24 34 1780 1100" xmlns="http://www.w3.org/2000/svg" xmlns:xlink="http://www.w3.org/1999/xlink">
  <g>
    <rect style="fill: #ffffff" x="311" y="68" width="395.079" height="448.34"/>
    <rect style="fill: none; fill-opacity:0; stroke-width: 2; stroke: #000000" x="311" y="68" width="395.079" height="448.34"/>
  </g>
  <g>
    <path style="fill: #b7b79d" d="M 432.16 171.481 L 543.739,171.481 L 543.739,192.102 L 432.16,192.102 L 432.16,171.481z"/>
    <path style="fill: none; fill-opacity:0; stroke-width: 0.02; stroke: #494936" d="M 432.16 171.481 L 543.739,171.481 L 543.739,192.102 L 432.16,192.102 L 432.16,171.481"/>
    <path style="fill: #c9c9b6" d="M 432.16 171.481 L 443.991,160.265 L 555.571,160.265 L 543.739,171.481 L 432.16,171.481z"/>
    <path style="fill: none; fill-opacity:0; stroke-width: 0.02; stroke: #494936" d="M 432.16 171.481 L 443.991,160.265 L 555.571,160.265 L 543.739,171.481 L 432.16,171.481"/>
    <path style="fill: none; fill-opacity:0; stroke-width: 2.12; stroke: #000000" d="M 537.499 180.869 L 510.724,180.869"/>
    <path style="fill: #7a7a5a" d="M 543.739 192.102 L 555.571,180.236 L 555.571,160.265 L 543.739,171.481 L 543.739,192.102z"/>
    <path style="fill: none; fill-opacity:0; stroke-width: 0.02; stroke: #494936" d="M 543.739 192.102 L 555.571,180.236 L 555.571,160.265 L 543.739,171.481 L 543.739,192.102"/>
    <path style="fill: #c9c9b6" d="M 432.793 205.182 L 445.239,189.588 L 531.275,189.588 L 518.829,205.182 L 432.793,205.182z"/>
    <path style="fill: none; fill-opacity:0; stroke-width: 0.02; stroke: #494936" d="M 432.793 205.182 L 445.239,189.588 L 531.275,189.588 L 518.829,205.182 L 432.793,205.182"/>
    <path style="fill: #7a7a5a" d="M 518.829 208.293 L 531.275,195.214 L 531.275,189.588 L 518.829,205.182 L 518.829,208.293z"/>
    <path style="fill: none; fill-opacity:0; stroke-width: 0.02; stroke: #494936" d="M 518.829 208.293 L 531.275,195.214 L 531.275,189.588 L 518.829,205.182 L 518.829,208.293"/>
    <path style="fill: #b7b79d" d="M 432.793 205.182 L 518.829,205.182 L 518.829,208.293 L 432.793,208.293 L 432.793,205.182z"/>
    <path style="fill: none; fill-opacity:0; stroke-width: 0.02; stroke: #494936" d="M 432.793 205.182 L 518.829,205.182 L 518.829,208.293 L 432.793,208.293 L 432.793,205.182"/>
    <path style="fill: #000000" d="M 448.984 169.002 L 458.354,160.265 L 537.499,160.265 L 528.797,169.002 L 448.984,169.002z"/>
    <path style="fill: none; fill-opacity:0; stroke-width: 0.02; stroke: #000000" d="M 448.984 169.002 L 458.354,160.265 L 537.499,160.265 L 528.797,169.002 L 448.984,169.002"/>
    <path style="fill: #c9c9b6" d="M 448.351 104.73 L 457.106,96.626 L 536.286,96.626 L 527.531,104.73 L 448.351,104.73z"/>
    <path style="fill: none; fill-opacity:0; stroke-width: 0.02; stroke: #494936" d="M 448.351 104.73 L 457.106,96.626 L 536.286,96.626 L 527.531,104.73 L 448.351,104.73"/>
    <path style="fill: #b7b79d" d="M 448.351 104.73 L 528.164,104.73 L 528.164,167.737 L 448.351,167.737 L 448.351,104.73z"/>
    <path style="fill: none; fill-opacity:0; stroke-width: 0.02; stroke: #494936" d="M 448.351 104.73 L 528.128,104.73 L 528.128,167.719 L 448.351,167.719 L 448.351,104.73"/>
    <path style="fill: #ffffff" d="M 455.207 112.817 L 521.29,112.817 L 521.29,161.496 L 455.207,161.496 L 455.207,112.817z"/>
    <path style="fill: none; fill-opacity:0; stroke-width: 0.02; stroke: #494936" d="M 455.207 112.817 L 521.29,112.817 L 521.29,161.478 L 455.207,161.478 L 455.207,112.817"/>
    <path style="fill: #7a7a5a" d="M 527.531 167.139 L 536.286,158.402 L 536.286,96.626 L 527.531,104.73 L 527.531,167.139z"/>
    <path style="fill: none; fill-opacity:0; stroke-width: 0.02; stroke: #494936" d="M 527.531 167.139 L 536.286,158.402 L 536.286,96.626 L 527.531,104.73 L 527.531,167.139"/>
  </g>
  <g>
    <rect style="fill: #ffffff" x="707.01" y="68" width="584.5" height="448.34"/>
    <rect style="fill: none; fill-opacity:0; stroke-width: 2; stroke: #000000" x="707.01" y="68" width="584.5" height="448.34"/>
  </g>
  <g>
    <path style="fill: #b7b796" d="M 929.203 212.141 L 975.425,212.141 L 975.425,113.569 L 929.203,113.569 L 929.203,212.141z"/>
    <path style="fill: none; fill-opacity:0; stroke-width: 0.02; stroke: #000000" d="M 929.203 212.141 L 975.425,212.141 L 975.425,113.569 L 929.203,113.569 L 929.203,212.141"/>
    <path style="fill: none; fill-opacity:0; stroke-width: 0.2; stroke: #494936" d="M 929.203 212.141 L 975.425,212.141 L 975.425,113.569 L 929.203,113.569 L 929.203,212.141"/>
    <path style="fill: #c9c9b6" d="M 929.203 113.569 L 938.034,104.793 L 982.6,104.793 L 975.426,113.569 L 929.203,113.569z"/>
    <path style="fill: none; fill-opacity:0; stroke-width: 0.02; stroke: #000000" d="M 929.203 113.569 L 938.034,104.793 L 982.6,104.793 L 975.426,113.569 L 929.203,113.569"/>
    <path style="fill: none; fill-opacity:0; stroke-width: 0.2; stroke: #494936" d="M 929.203 113.569 L 938.034,104.793 L 982.6,104.793 L 975.426,113.569 L 929.203,113.569"/>
    <path style="fill: #7a7a5a" d="M 975.423 212.141 L 982.597,198.476 L 982.597,104.79 L 975.423,113.566 L 975.423,212.138 L 975.423,212.141z"/>
    <path style="fill: none; fill-opacity:0; stroke-width: 0.02; stroke: #000000" d="M 975.423 212.141 L 982.597,198.476 L 982.597,104.79 L 975.423,113.566 L 975.423,212.138 L 975.423,212.141"/>
    <path style="fill: none; fill-opacity:0; stroke-width: 0.2; stroke: #494936" d="M 975.423 212.141 L 982.597,198.476 L 982.597,104.79 L 975.423,113.566 L 975.423,212.138"/>
    <path style="fill: #b7b796" d="M 979.103 216.542 L 975.426,212.141 L 929.203,212.141 L 924.77,216.542 L 979.103,216.542 L 979.103,216.542z"/>
    <path style="fill: none; fill-opacity:0; stroke-width: 0.02; stroke: #000000" d="M 979.103 216.542 L 975.426,212.141 L 929.203,212.141 L 924.77,216.542 L 979.103,216.542 L 979.103,216.542"/>
    <path style="fill: none; fill-opacity:0; stroke-width: 0.2; stroke: #494936" d="M 979.103 216.542 L 975.426,212.141 L 929.203,212.141 L 924.77,216.542 L 979.103,216.542"/>
    <path style="fill: #b7b796" d="M 979.103 216.542 L 986.252,201.251 L 982.597,198.476 L 975.423,212.141 L 979.1,216.542 L 979.103,216.542z"/>
    <path style="fill: none; fill-opacity:0; stroke-width: 0.02; stroke: #000000" d="M 979.103 216.542 L 986.252,201.251 L 982.597,198.476 L 975.423,212.141 L 979.1,216.542 L 979.103,216.542"/>
    <path style="fill: none; fill-opacity:0; stroke-width: 0.2; stroke: #494936" d="M 979.103 216.542 L 986.252,201.251 L 982.597,198.476 L 975.423,212.141 L 979.1,216.542"/>
    <path style="fill: #b7b796" d="M 975.423 212.141 L 929.199,212.141 L 975.423,212.141z"/>
    <path style="fill: none; fill-opacity:0; stroke-width: 0.2; stroke: #494936" d="M 975.423 212.141 L 929.199,212.141"/>
    <path style="fill: #b7b796" d="M 982.597 198.476 L 975.423,212.141 L 982.597,198.476z"/>
    <path style="fill: none; fill-opacity:0; stroke-width: 0.2; stroke: #494936" d="M 982.597 198.476 L 975.423,212.141"/>
    <path style="fill: #b7b796" d="M 929.224 118.116 L 975.241,118.116 L 929.224,118.116z"/>
    <path style="fill: none; fill-opacity:0; stroke-width: 0.2; stroke: #494936" d="M 929.224 118.116 L 975.241,118.116"/>
    <path style="fill: #b7b796" d="M 929.184 118.674 L 975.201,118.674 L 929.184,118.674z"/>
    <path style="fill: none; fill-opacity:0; stroke-width: 0.2; stroke: #494936" d="M 929.184 118.674 L 975.201,118.674"/>
    <path style="fill: #b7b796" d="M 965.845 130.472 L 932.308,130.472 L 932.308,133.559 L 938.506,133.559 L 965.845,130.472z"/>
    <path style="fill: none; fill-opacity:0; stroke-width: 0.2; stroke: #494936" d="M 965.845 130.472 L 932.308,130.472 L 932.308,133.559 L 938.506,133.559"/>
    <path style="fill: #b7b796" d="M 965.845 136.195 L 932.308,136.195 L 932.308,139.281 L 938.506,139.281 L 965.845,136.195z"/>
    <path style="fill: none; fill-opacity:0; stroke-width: 0.2; stroke: #494936" d="M 965.845 136.195 L 932.308,136.195 L 932.308,139.281 L 938.506,139.281"/>
    <path style="fill: #b7b796" d="M 965.845 141.921 L 932.308,141.921 L 932.308,145.007 L 938.506,145.007 L 965.845,141.921z"/>
    <path style="fill: none; fill-opacity:0; stroke-width: 0.2; stroke: #494936" d="M 965.845 141.921 L 932.308,141.921 L 932.308,145.007 L 938.506,145.007"/>
    <path style="fill: #b7b796" d="M 965.845 147.643 L 932.308,147.643 L 932.308,150.73 L 938.506,150.73 L 965.845,147.643z"/>
    <path style="fill: none; fill-opacity:0; stroke-width: 0.2; stroke: #494936" d="M 965.845 147.643 L 932.308,147.643 L 932.308,150.73 L 938.506,150.73"/>
    <path style="fill: #b7b796" d="M 965.845 153.369 L 932.308,153.369 L 932.308,156.456 L 938.506,156.456 L 965.845,153.369z"/>
    <path style="fill: none; fill-opacity:0; stroke-width: 0.2; stroke: #494936" d="M 965.845 153.369 L 932.308,153.369 L 932.308,156.456 L 938.506,156.456"/>
    <path style="fill: #b7b796" d="M 965.845 159.092 L 932.308,159.092 L 932.308,162.179 L 938.506,162.179 L 965.845,159.092z"/>
    <path style="fill: none; fill-opacity:0; stroke-width: 0.2; stroke: #494936" d="M 965.845 159.092 L 932.308,159.092 L 932.308,162.179 L 938.506,162.179"/>
    <path style="fill: #b7b796" d="M 965.845 164.815 L 932.308,164.815 L 932.308,167.902 L 938.506,167.902 L 965.845,164.815z"/>
    <path style="fill: none; fill-opacity:0; stroke-width: 0.2; stroke: #494936" d="M 965.845 164.815 L 932.308,164.815 L 932.308,167.902 L 938.506,167.902"/>
    <path style="fill: #b7b796" d="M 965.845 170.541 L 932.308,170.541 L 932.308,173.628 L 938.506,173.628 L 965.845,170.541z"/>
    <path style="fill: none; fill-opacity:0; stroke-width: 0.2; stroke: #494936" d="M 965.845 170.541 L 932.308,170.541 L 932.308,173.628 L 938.506,173.628"/>
    <path style="fill: #b7b796" d="M 965.845 176.264 L 932.308,176.264 L 932.308,179.35 L 938.506,179.35 L 965.845,176.264z"/>
    <path style="fill: none; fill-opacity:0; stroke-width: 0.2; stroke: #494936" d="M 965.845 176.264 L 932.308,176.264 L 932.308,179.35 L 938.506,179.35"/>
    <path style="fill: #b7b796" d="M 965.845 181.989 L 932.308,181.989 L 932.308,185.076 L 938.506,185.076 L 965.845,181.989z"/>
    <path style="fill: none; fill-opacity:0; stroke-width: 0.2; stroke: #494936" d="M 965.845 181.989 L 932.308,181.989 L 932.308,185.076 L 938.506,185.076"/>
    <path style="fill: #b7b796" d="M 965.845 187.712 L 932.308,187.712 L 932.308,190.799 L 938.506,190.799 L 965.845,187.712z"/>
    <path style="fill: none; fill-opacity:0; stroke-width: 0.2; stroke: #494936" d="M 965.845 187.712 L 932.308,187.712 L 932.308,190.799 L 938.506,190.799"/>
    <path style="fill: #b7b796" d="M 965.845 193.435 L 932.308,193.435 L 932.308,196.522 L 938.506,196.522 L 965.845,193.435z"/>
    <path style="fill: none; fill-opacity:0; stroke-width: 0.2; stroke: #494936" d="M 965.845 193.435 L 932.308,193.435 L 932.308,196.522 L 938.506,196.522"/>
    <path style="fill: #b7b796" d="M 965.845 199.161 L 932.308,199.161 L 932.308,202.248 L 938.506,202.248 L 965.845,199.161z"/>
    <path style="fill: none; fill-opacity:0; stroke-width: 0.2; stroke: #494936" d="M 965.845 199.161 L 932.308,199.161 L 932.308,202.248 L 938.506,202.248"/>
    <path style="fill: #b7b796" d="M 965.845 204.884 L 932.308,204.884 L 932.308,207.971 L 938.506,207.971 L 965.845,204.884z"/>
    <path style="fill: none; fill-opacity:0; stroke-width: 0.2; stroke: #494936" d="M 965.845 204.884 L 932.308,204.884 L 932.308,207.971 L 938.506,207.971"/>
  </g>
  <g>
    <line style="fill: none; fill-opacity:0; stroke-width: 2; stroke: #000000" x1="359.596" y1="253.348" x2="744.274" y2="254.358"/>
    <polygon style="fill: #000000" points="751.774,254.378 741.761,259.352 744.274,254.358 741.787,249.352 "/>
    <polygon style="fill: none; fill-opacity:0; stroke-width: 2; stroke: #000000" points="751.774,254.378 741.761,259.352 744.274,254.358 741.787,249.352 "/>
  </g>
  <text font-size="23.7631" style="fill: #000000;text-anchor:start;font-family:sans-serif;font-style:normal;font-weight:normal" x="471.008" y="57.604">
    <tspan x="471.008" y="57.604">Client</tspan>
  </text>
  <text font-size="23.7067" style="fill: #000000;text-anchor:start;font-family:sans-serif;font-style:normal;font-weight:normal" x="908.978" y="56.0684">
    <tspan x="908.978" y="56.0684">Server</tspan>
  </text>
  <text font-size="23.7067" style="fill: #000000;text-anchor:start;font-family:sans-serif;font-style:normal;font-weight:normal" x="1480.72" y="228.04">
    <tspan x="1480.72" y="228.04">Database</tspan>
  </text>
  <text font-size="16.9333" style="fill: #000000;text-anchor:start;font-family:sans-serif;font-style:normal;font-weight:normal" x="354.648" y="243.948">
    <tspan x="354.648" y="243.948">1) Login UserName/Password</tspan>
  </text>
  <text font-size="16.9333" style="fill: #000000;text-anchor:start;font-family:sans-serif;font-style:normal;font-weight:normal" x="715.162" y="290.118">
    <tspan x="715.162" y="290.118">2) Create new key pairs [public, private] keys for this client</tspan>
  </text>
  <text font-size="16.9333" style="fill: #000000;text-anchor:start;font-family:sans-serif;font-style:normal;font-weight:normal" x="711.62" y="342.464">
    <tspan x="711.62" y="342.464">4) Bring Server Application Key. [Server_Key]</tspan>
  </text>
  <text font-size="16.9333" style="fill: #000000;text-anchor:start;font-family:sans-serif;font-style:normal;font-weight:normal" x="715.034" y="317.082">
    <tspan x="715.034" y="317.082">3) Save key pairs into database</tspan>
  </text>
  <text font-size="16.9333" style="fill: #000000;text-anchor:start;font-family:sans-serif;font-style:normal;font-weight:normal" x="713.06" y="369.034">
    <tspan x="713.06" y="369.034">5) Create shared key by HMAC([Server_Key], [Client_Private_Key])</tspan>
  </text>
  <g>
    <line style="fill: none; fill-opacity:0; stroke-width: 2; stroke: #000000" x1="714.624" y1="495.34" x2="584.362" y2="494.41"/>
    <polygon style="fill: #000000" points="576.862,494.356 586.897,489.428 584.362,494.41 586.826,499.427 "/>
    <polygon style="fill: none; fill-opacity:0; stroke-width: 2; stroke: #000000" points="576.862,494.356 586.897,489.428 584.362,494.41 586.826,499.427 "/>
  </g>
  <text font-size="16.9333" style="fill: #000000;text-anchor:start;font-family:sans-serif;font-style:normal;font-weight:normal" x="718.06" y="421.038">
    <tspan x="718.06" y="421.038">6) [Client_Shared_Key]: 9f9de38c4405a747fc25dd146b2ee6a3</tspan>
    <tspan x="718.06" y="442.205">                                      0e8ea627c7da26d5a616c4c2fcb9ec89</tspan>
    <tspan x="718.06" y="463.371">                                      6b4020febcb4971a65b97959c5d5625a</tspan>
  </text>
  <text font-size="16.9333" style="fill: #000000;text-anchor:start;font-family:sans-serif;font-style:normal;font-weight:normal" x="717.886" y="499.984">
    <tspan x="717.886" y="499.984">7) Send [Client_Shared_Key] &amp; [Client_Public_Key]</tspan>
  </text>
  <text font-size="84.6667" style="fill: #000000;text-anchor:start;font-family:sans-serif;font-style:normal;font-weight:normal" x="32.268" y="318.028">
    <tspan x="32.268" y="318.028">Login</tspan>
  </text>
  <text font-size="84.6667" style="fill: #000000;text-anchor:start;font-family:sans-serif;font-style:normal;font-weight:normal" x="24.881" y="673.792">
    <tspan x="24.881" y="673.792">Verify</tspan>
  </text>
  <g>
    <rect style="fill: #ffffff" x="311" y="516.686" width="394.075" height="487.152"/>
    <rect style="fill: none; fill-opacity:0; stroke-width: 2; stroke: #000000" x="311" y="516.686" width="394.075" height="487.152"/>
  </g>
  <g>
    <rect style="fill: #ffffff" x="706.004" y="515.872" width="584.506" height="488.966"/>
    <rect style="fill: none; fill-opacity:0; stroke-width: 2; stroke: #000000" x="706.004" y="515.872" width="584.506" height="488.966"/>
  </g>
  <g>
    <rect style="fill: #ffffff" x="1292.6" y="240.772" width="510.744" height="562.066"/>
    <rect style="fill: none; fill-opacity:0; stroke-width: 2; stroke: #000000" x="1292.6" y="240.772" width="510.744" height="562.066"/>
  </g>
  <g>
    <path style="fill: #a5a585" d="M 1622.36 350.013 L 1622.26,348.753 L 1621.99,347.513 L 1621.52,346.272 L 1620.87,345.052 L 1620.06,343.831 L 1619.05,342.63 L 1617.87,341.449 L 1616.51,340.287 L 1614.98,339.145 L 1613.29,338.062 L 1611.43,336.979 L 1609.45,335.916 L 1607.26,334.912 L 1604.96,333.947 L 1602.52,333.022 L 1599.92,332.136 L 1597.22,331.309 L 1594.38,330.521 L 1591.45,329.793 L 1588.38,329.103 L 1585.25,328.454 L 1582,327.883 L 1578.67,327.331 L 1575.3,326.879 L 1571.84,326.485 L 1568.31,326.15 L 1564.77,325.855 L 1561.17,325.658 L 1557.54,325.481 L 1553.9,325.362 L 1550.26,325.362 L 1550.26,325.362 L 1546.6,325.362 L 1542.96,325.481 L 1539.33,325.658 L 1535.73,325.855 L 1532.19,326.15 L 1528.66,326.485 L 1525.22,326.879 L 1521.83,327.331 L 1518.5,327.883 L 1515.25,328.454 L 1512.12,329.103 L 1509.07,329.793 L 1506.14,330.521 L 1503.3,331.309 L 1500.58,332.136 L 1497.99,333.022 L 1495.56,333.947 L 1493.24,334.912 L 1491.07,335.916 L 1489.07,336.979 L 1487.22,338.062 L 1485.52,339.145 L 1483.99,340.287 L 1482.63,341.449 L 1481.45,342.63 L 1480.44,343.831 L 1479.63,345.052 L 1478.98,346.272 L 1478.51,347.513 L 1478.26,348.753 L 1478.16,350.013 L 1478.16,350.013 L 1478.26,351.274 L 1478.51,352.494 L 1478.98,353.754 L 1479.63,354.975 L 1480.44,356.196 L 1481.45,357.397 L 1482.63,358.578 L 1483.99,359.74 L 1485.52,360.862 L 1487.22,361.965 L 1489.07,363.048 L 1491.07,364.111 L 1493.24,365.115 L 1495.56,366.08 L 1497.99,367.005 L 1500.58,367.891 L 1503.3,368.718 L 1506.14,369.506 L 1509.07,370.234 L 1512.12,370.923 L 1515.25,371.573 L 1518.5,372.144 L 1521.83,372.676 L 1525.22,373.148 L 1528.66,373.542 L 1532.19,373.877 L 1535.73,374.152 L 1539.33,374.369 L 1542.96,374.526 L 1546.6,374.645 L 1550.26,374.664 L 1550.26,374.664 L 1553.9,374.645 L 1557.54,374.526 L 1561.17,374.369 L 1564.77,374.152 L 1568.31,373.877 L 1571.84,373.542 L 1575.3,373.148 L 1578.67,372.676 L 1582,372.144 L 1585.25,371.573 L 1588.38,370.923 L 1591.45,370.234 L 1594.38,369.506 L 1597.22,368.718 L 1599.92,367.891 L 1602.52,367.005 L 1604.96,366.08 L 1607.26,365.115 L 1609.45,364.111 L 1611.43,363.048 L 1613.29,361.965 L 1614.98,360.862 L 1616.51,359.74 L 1617.87,358.578 L 1619.05,357.397 L 1620.06,356.196 L 1620.87,354.975 L 1621.52,353.754 L 1621.99,352.494 L 1622.26,351.274 L 1622.36,350.013z"/>
    <path style="fill: none; fill-opacity:0; stroke-width: 0.02; stroke: #494936" d="M 1621.52 349.62 L 1621.42,348.359 L 1621.16,347.158 L 1620.71,345.938 L 1620.08,344.737 L 1619.23,343.516 L 1618.21,342.354 L 1617.09,341.173 L 1615.71,340.07 L 1614.19,338.948 L 1612.52,337.845 L 1610.67,336.802 L 1608.68,335.758 L 1606.53,334.774 L 1604.27,333.789 L 1601.79,332.903 L 1599.21,332.037 L 1596.51,331.21 L 1593.71,330.442 L 1590.8,329.733 L 1587.77,329.044 L 1584.62,328.434 L 1581.41,327.863 L 1578.1,327.331 L 1574.75,326.879 L 1571.33,326.485 L 1567.8,326.17 L 1564.28,325.855 L 1560.7,325.678 L 1557.11,325.52 L 1553.45,325.422 L 1549.83,325.362 L 1549.83,325.362 L 1546.2,325.422 L 1542.58,325.52 L 1538.96,325.678 L 1535.41,325.855 L 1531.87,326.17 L 1528.37,326.485 L 1524.92,326.879 L 1521.55,327.331 L 1518.26,327.863 L 1515.06,328.434 L 1511.91,329.044 L 1508.87,329.733 L 1505.98,330.442 L 1503.14,331.21 L 1500.43,332.037 L 1497.87,332.903 L 1495.43,333.789 L 1493.16,334.774 L 1491,335.758 L 1488.99,336.802 L 1487.18,337.845 L 1485.5,338.948 L 1483.95,340.07 L 1482.61,341.173 L 1481.45,342.354 L 1480.44,343.516 L 1479.62,344.737 L 1478.97,345.938 L 1478.51,347.158 L 1478.26,348.359 L 1478.16,349.62 L 1478.16,349.62 L 1478.26,350.84 L 1478.51,352.041 L 1478.97,353.282 L 1479.62,354.483 L 1480.44,355.684 L 1481.45,356.865 L 1482.61,358.027 L 1483.95,359.149 L 1485.5,360.252 L 1487.18,361.374 L 1488.99,362.437 L 1491,363.441 L 1493.16,364.446 L 1495.43,365.41 L 1497.87,366.316 L 1500.43,367.182 L 1503.14,367.99 L 1505.98,368.777 L 1508.87,369.486 L 1511.91,370.175 L 1515.06,370.805 L 1518.26,371.357 L 1521.55,371.868 L 1524.92,372.321 L 1528.37,372.715 L 1531.87,373.05 L 1535.41,373.345 L 1538.96,373.542 L 1542.58,373.7 L 1546.2,373.798 L 1549.83,373.837 L 1549.83,373.837 L 1553.45,373.798 L 1557.11,373.7 L 1560.7,373.542 L 1564.28,373.345 L 1567.8,373.05 L 1571.33,372.715 L 1574.75,372.321 L 1578.1,371.868 L 1581.41,371.357 L 1584.62,370.805 L 1587.77,370.175 L 1590.8,369.486 L 1593.71,368.777 L 1596.51,367.99 L 1599.21,367.182 L 1601.79,366.316 L 1604.27,365.41 L 1606.53,364.446 L 1608.68,363.441 L 1610.67,362.437 L 1612.52,361.374 L 1614.19,360.252 L 1615.71,359.149 L 1617.09,358.027 L 1618.21,356.865 L 1619.23,355.684 L 1620.08,354.483 L 1620.71,353.282 L 1621.16,352.041 L 1621.42,350.84 L 1621.52,349.62"/>
    <path style="fill: #a5a585" d="M 1478.16 298.526 L 1478.16,350.447 L 1621.52,350.447 L 1621.52,298.526 L 1478.16,298.526z"/>
    <path style="fill: #c9c9b6" d="M 1622.36 298.093 L 1622.26,296.813 L 1621.99,295.573 L 1621.52,294.352 L 1620.87,293.131 L 1620.06,291.891 L 1619.05,290.69 L 1617.87,289.489 L 1616.51,288.366 L 1614.98,287.244 L 1613.29,286.102 L 1611.43,285.059 L 1609.45,283.995 L 1607.26,282.972 L 1604.96,282.027 L 1602.52,281.101 L 1599.92,280.195 L 1597.22,279.368 L 1594.38,278.601 L 1591.45,277.852 L 1588.38,277.163 L 1585.25,276.533 L 1582,275.962 L 1578.67,275.431 L 1575.3,274.958 L 1571.84,274.564 L 1568.31,274.23 L 1564.77,273.954 L 1561.17,273.737 L 1557.54,273.56 L 1553.9,273.462 L 1550.26,273.442 L 1550.26,273.442 L 1546.6,273.462 L 1542.96,273.56 L 1539.33,273.737 L 1535.73,273.954 L 1532.19,274.23 L 1528.66,274.564 L 1525.22,274.958 L 1521.83,275.431 L 1518.5,275.962 L 1515.25,276.533 L 1512.12,277.163 L 1509.07,277.852 L 1506.14,278.601 L 1503.3,279.368 L 1500.58,280.195 L 1497.99,281.101 L 1495.56,282.027 L 1493.24,282.972 L 1491.07,283.995 L 1489.07,285.059 L 1487.22,286.102 L 1485.52,287.244 L 1483.99,288.366 L 1482.63,289.489 L 1481.45,290.69 L 1480.44,291.891 L 1479.63,293.131 L 1478.98,294.352 L 1478.51,295.573 L 1478.26,296.813 L 1478.16,298.093 L 1478.16,298.093 L 1478.26,299.333 L 1478.51,300.593 L 1478.98,301.794 L 1479.63,303.055 L 1480.44,304.256 L 1481.45,305.476 L 1482.63,306.658 L 1483.99,307.8 L 1485.52,308.942 L 1487.22,310.044 L 1489.07,311.127 L 1491.07,312.171 L 1493.24,313.175 L 1495.56,314.14 L 1497.99,315.085 L 1500.58,315.951 L 1503.3,316.798 L 1506.14,317.585 L 1509.07,318.314 L 1512.12,319.003 L 1515.25,319.653 L 1518.5,320.204 L 1521.83,320.755 L 1525.22,321.208 L 1528.66,321.602 L 1532.19,321.956 L 1535.73,322.212 L 1539.33,322.448 L 1542.96,322.606 L 1546.6,322.704 L 1550.26,322.744 L 1550.26,322.744 L 1553.9,322.704 L 1557.54,322.606 L 1561.17,322.448 L 1564.77,322.212 L 1568.31,321.956 L 1571.84,321.602 L 1575.3,321.208 L 1578.67,320.755 L 1582,320.204 L 1585.25,319.653 L 1588.38,319.003 L 1591.45,318.314 L 1594.38,317.585 L 1597.22,316.798 L 1599.92,315.951 L 1602.52,315.085 L 1604.96,314.14 L 1607.26,313.175 L 1609.45,312.171 L 1611.43,311.127 L 1613.29,310.044 L 1614.98,308.942 L 1616.51,307.8 L 1617.87,306.658 L 1619.05,305.476 L 1620.06,304.256 L 1620.87,303.055 L 1621.52,301.794 L 1621.99,300.593 L 1622.26,299.333 L 1622.36,298.093z"/>
    <path style="fill: none; fill-opacity:0; stroke-width: 0.02; stroke: #494936" d="M 1621.52 297.699 L 1621.42,296.439 L 1621.16,295.238 L 1620.71,294.037 L 1620.08,292.816 L 1619.23,291.576 L 1618.21,290.414 L 1617.09,289.292 L 1615.71,288.13 L 1614.19,287.028 L 1612.52,285.905 L 1610.67,284.881 L 1608.68,283.838 L 1606.53,282.834 L 1604.27,281.908 L 1601.79,280.983 L 1599.21,280.136 L 1596.51,279.309 L 1593.71,278.522 L 1590.8,277.793 L 1587.77,277.124 L 1584.62,276.514 L 1581.41,275.943 L 1578.1,275.431 L 1574.75,274.958 L 1571.33,274.564 L 1567.8,274.23 L 1564.28,273.954 L 1560.7,273.737 L 1559.49,273.678 L 1540.16,273.678 L 1538.96,273.737 L 1535.41,273.954 L 1531.87,274.23 L 1528.37,274.564 L 1524.92,274.958 L 1521.55,275.431 L 1518.26,275.943 L 1515.06,276.514 L 1511.91,277.124 L 1508.87,277.793 L 1505.98,278.522 L 1503.14,279.309 L 1500.43,280.136 L 1497.87,280.983 L 1495.43,281.908 L 1493.16,282.834 L 1491,283.838 L 1488.99,284.881 L 1487.18,285.905 L 1485.5,287.028 L 1483.95,288.13 L 1482.61,289.292 L 1481.45,290.414 L 1480.44,291.576 L 1479.62,292.816 L 1478.97,294.037 L 1478.51,295.238 L 1478.26,296.439 L 1478.16,297.699 L 1478.16,297.699 L 1478.26,298.9 L 1478.51,300.141 L 1478.97,301.361 L 1479.62,302.562 L 1480.44,303.763 L 1481.45,304.945 L 1482.61,306.087 L 1483.95,307.248 L 1485.5,308.351 L 1487.18,309.454 L 1488.99,310.517 L 1491,311.521 L 1493.16,312.505 L 1495.43,313.49 L 1497.87,314.396 L 1500.43,315.242 L 1503.14,316.049 L 1505.98,316.837 L 1508.87,317.546 L 1511.91,318.235 L 1515.06,318.885 L 1518.26,319.397 L 1521.55,319.948 L 1524.92,320.381 L 1528.37,320.795 L 1531.87,321.149 L 1535.41,321.425 L 1538.96,321.641 L 1542.58,321.779 L 1546.2,321.858 L 1549.83,321.917 L 1549.83,321.917 L 1553.45,321.858 L 1557.11,321.779 L 1560.7,321.641 L 1564.28,321.425 L 1567.8,321.149 L 1571.33,320.795 L 1574.75,320.381 L 1578.1,319.948 L 1581.41,319.397 L 1584.62,318.885 L 1587.77,318.235 L 1590.8,317.546 L 1593.71,316.837 L 1596.51,316.049 L 1599.21,315.242 L 1601.79,314.396 L 1604.27,313.49 L 1606.53,312.505 L 1608.68,311.521 L 1610.67,310.517 L 1612.52,309.454 L 1614.19,308.351 L 1615.71,307.248 L 1617.09,306.087 L 1618.21,304.945 L 1619.23,303.763 L 1620.08,302.562 L 1620.71,301.361 L 1621.16,300.141 L 1621.42,298.9 L 1621.52,297.699"/>
    <path style="fill: none; fill-opacity:0; stroke-width: 0.02; stroke: #000000" d="M 1478.16 297.699 L 1478.16,349.58"/>
    <path style="fill: none; fill-opacity:0; stroke-width: 0.02; stroke: #000000" d="M 1621.52 297.699 L 1621.52,349.58"/>
  </g>
  <g>
    <line style="fill: none; fill-opacity:0; stroke-width: 2; stroke: #000000" x1="1112.44" y1="722.4" x2="1306" y2="722.4"/>
    <polygon style="fill: #000000" points="1313.5,722.4 1303.5,727.4 1306,722.4 1303.5,717.4 "/>
    <polygon style="fill: none; fill-opacity:0; stroke-width: 2; stroke: #000000" points="1313.5,722.4 1303.5,727.4 1306,722.4 1303.5,717.4 "/>
  </g>
  <text font-size="16.9333" style="fill: #000000;text-anchor:start;font-family:sans-serif;font-style:normal;font-weight:normal" x="327.132" y="681.122">
    <tspan x="327.132" y="681.122">8) Send [Client_Shared_Key] &amp; </tspan>
    <tspan x="327.132" y="702.289">             [Client_Public_Key]</tspan>
  </text>
  <text font-size="16.9333" style="fill: #000000;text-anchor:start;font-family:sans-serif;font-style:normal;font-weight:normal" x="722.47" y="720.642">
    <tspan x="722.47" y="720.642">9) Match by [Client_Public_Key] in order to</tspan>
    <tspan x="722.47" y="741.809">    found the key pairs inside database </tspan>
  </text>
  <text font-size="16.9333" style="fill: #000000;text-anchor:start;font-family:sans-serif;font-style:normal;font-weight:normal" x="718.946" y="777.486">
    <tspan x="718.946" y="777.486">10) Bring key pairs</tspan>
  </text>
  <text font-size="16.9333" style="fill: #000000;text-anchor:start;font-family:sans-serif;font-style:normal;font-weight:normal" x="716.304" y="835.054">
    <tspan x="716.304" y="835.054">11) Create [Server_Shared_Key] by</tspan>
    <tspan x="716.304" y="856.221">      HMAC([Server_Key], [Client_Private_Key])</tspan>
  </text>
  <text font-size="16.9333" style="fill: #000000;text-anchor:start;font-family:sans-serif;font-style:normal;font-weight:normal" x="1318.57" y="499.394">
    <tspan x="1318.57" y="499.394">[Client_Public_Key]: -15af2b946b069d-5mQykkuMm</tspan>
    <tspan x="1318.57" y="520.561">                                F8UDZIuZkG8AdFfB3udhYkGW-</tspan>
  </text>
  <text font-size="16.9333" style="fill: #000000;text-anchor:start;font-family:sans-serif;font-style:normal;font-weight:normal" x="1319.72" y="563.47">
    <tspan x="1319.72" y="563.47">[Client_Private_Key]: -17AKPqotjcQBjzmdktluKiR5qU</tspan>
    <tspan x="1319.72" y="584.637">                                  byyzqWov-15af2b946b0c4-</tspan>
  </text>
  <g>
    <line style="fill: none; fill-opacity:0; stroke-width: 2; stroke: #000000" x1="709.636" y1="956.904" x2="595.25" y2="956.843"/>
    <polygon style="fill: #000000" points="587.75,956.839 597.753,951.845 595.25,956.843 597.747,961.845 "/>
    <polygon style="fill: none; fill-opacity:0; stroke-width: 2; stroke: #000000" points="587.75,956.839 597.753,951.845 595.25,956.843 597.747,961.845 "/>
  </g>
  <text font-size="16.9333" style="fill: #000000;text-anchor:start;font-family:sans-serif;font-style:normal;font-weight:normal" x="714.304" y="887.312">
    <tspan x="714.304" y="887.312">12) [Server_Shared_Key]: 9f9de38c4405a747fc25dd146b2ee6a3</tspan>
    <tspan x="714.304" y="908.479">                                         0e8ea627c7da26d5a616c4c2fcb9ec89</tspan>
    <tspan x="714.304" y="929.645">                                         6b4020febcb4971a65b97959c5d5625a</tspan>
  </text>
  <text font-size="16.9333" style="fill: #000000;text-anchor:start;font-family:sans-serif;font-style:normal;font-weight:normal" x="713.13" y="961.214">
    <tspan x="713.13" y="961.214">13) Send OK if [Server_Shared_Key] == [Client_Shared_Key]</tspan>
  </text>
  <g>
    <line style="fill: none; fill-opacity:0; stroke-width: 2; stroke: #000000" x1="607.96" y1="682.23" x2="801.516" y2="682.23"/>
    <polygon style="fill: #000000" points="809.016,682.23 799.016,687.23 801.516,682.23 799.016,677.23 "/>
    <polygon style="fill: none; fill-opacity:0; stroke-width: 2; stroke: #000000" points="809.016,682.23 799.016,687.23 801.516,682.23 799.016,677.23 "/>
  </g>
  <g>
    <line style="fill: none; fill-opacity:0; stroke-width: 2; stroke: #000000" x1="995.036" y1="311.05" x2="1372.59" y2="310.623"/>
    <polygon style="fill: #000000" points="1380.09,310.615 1370.09,315.626 1372.59,310.623 1370.08,305.626 "/>
    <polygon style="fill: none; fill-opacity:0; stroke-width: 2; stroke: #000000" points="1380.09,310.615 1370.09,315.626 1372.59,310.623 1370.08,305.626 "/>
  </g>
  <text font-size="28.2222" style="fill: #000000;text-anchor:start;font-family:sans-serif;font-style:normal;font-weight:normal" x="307.906" y="1048.43">
    <tspan x="307.906" y="1048.43">Impersonate Protection Algorithm(IPA): it's a way that generate a Token on the fly which it does</tspan>
    <tspan x="307.906" y="1083.71">                                                               protect all users tokens if a database breach occurred.</tspan>
  </text>
  <text font-size="12.8" style="fill: #000000;text-anchor:start;font-family:sans-serif;font-style:normal;font-weight:normal" x="308.492" y="1113.41">
    <tspan x="308.492" y="1113.41">By Abdelaziz Elrashed &lt;aeemh.sdn@gmail.com&gt;</tspan>
  </text>
  <text font-size="12.8" style="fill: #000000;text-anchor:start;font-family:sans-serif;font-style:normal;font-weight:normal" x="308.264" y="1130.38">
    <tspan x="308.264" y="1130.38">Library designed with that goal https://github.com/vzool/api-hmac-guard</tspan>
  </text>
  <g>
    <line style="fill: none; fill-opacity:0; stroke-width: 2; stroke: #000000" x1="1316.55" y1="768.742" x2="1129.79" y2="768.267"/>
    <polygon style="fill: #000000" points="1122.29,768.248 1132.3,763.273 1129.79,768.267 1132.27,773.273 "/>
    <polygon style="fill: none; fill-opacity:0; stroke-width: 2; stroke: #000000" points="1122.29,768.248 1132.3,763.273 1129.79,768.267 1132.27,773.273 "/>
  </g>
  <g>
    <path style="fill: #b7b79d" d="M 429.992 608.619 L 541.571,608.619 L 541.571,629.24 L 429.992,629.24 L 429.992,608.619z"/>
    <path style="fill: none; fill-opacity:0; stroke-width: 0.02; stroke: #494936" d="M 429.992 608.619 L 541.571,608.619 L 541.571,629.24 L 429.992,629.24 L 429.992,608.619"/>
    <path style="fill: #c9c9b6" d="M 429.992 608.619 L 441.823,597.403 L 553.403,597.403 L 541.571,608.619 L 429.992,608.619z"/>
    <path style="fill: none; fill-opacity:0; stroke-width: 0.02; stroke: #494936" d="M 429.992 608.619 L 441.823,597.403 L 553.403,597.403 L 541.571,608.619 L 429.992,608.619"/>
    <path style="fill: none; fill-opacity:0; stroke-width: 2.12; stroke: #000000" d="M 535.331 618.007 L 508.556,618.007"/>
    <path style="fill: #7a7a5a" d="M 541.571 629.24 L 553.403,617.374 L 553.403,597.403 L 541.571,608.619 L 541.571,629.24z"/>
    <path style="fill: none; fill-opacity:0; stroke-width: 0.02; stroke: #494936" d="M 541.571 629.24 L 553.403,617.374 L 553.403,597.403 L 541.571,608.619 L 541.571,629.24"/>
    <path style="fill: #c9c9b6" d="M 430.625 642.32 L 443.071,626.726 L 529.107,626.726 L 516.661,642.32 L 430.625,642.32z"/>
    <path style="fill: none; fill-opacity:0; stroke-width: 0.02; stroke: #494936" d="M 430.625 642.32 L 443.071,626.726 L 529.107,626.726 L 516.661,642.32 L 430.625,642.32"/>
    <path style="fill: #7a7a5a" d="M 516.661 645.431 L 529.107,632.352 L 529.107,626.726 L 516.661,642.32 L 516.661,645.431z"/>
    <path style="fill: none; fill-opacity:0; stroke-width: 0.02; stroke: #494936" d="M 516.661 645.431 L 529.107,632.352 L 529.107,626.726 L 516.661,642.32 L 516.661,645.431"/>
    <path style="fill: #b7b79d" d="M 430.625 642.32 L 516.661,642.32 L 516.661,645.431 L 430.625,645.431 L 430.625,642.32z"/>
    <path style="fill: none; fill-opacity:0; stroke-width: 0.02; stroke: #494936" d="M 430.625 642.32 L 516.661,642.32 L 516.661,645.431 L 430.625,645.431 L 430.625,642.32"/>
    <path style="fill: #000000" d="M 446.816 606.14 L 456.186,597.403 L 535.331,597.403 L 526.629,606.14 L 446.816,606.14z"/>
    <path style="fill: none; fill-opacity:0; stroke-width: 0.02; stroke: #000000" d="M 446.816 606.14 L 456.186,597.403 L 535.331,597.403 L 526.629,606.14 L 446.816,606.14"/>
    <path style="fill: #c9c9b6" d="M 446.183 541.868 L 454.938,533.764 L 534.118,533.764 L 525.363,541.868 L 446.183,541.868z"/>
    <path style="fill: none; fill-opacity:0; stroke-width: 0.02; stroke: #494936" d="M 446.183 541.868 L 454.938,533.764 L 534.118,533.764 L 525.363,541.868 L 446.183,541.868"/>
    <path style="fill: #b7b79d" d="M 446.183 541.868 L 525.996,541.868 L 525.996,604.875 L 446.183,604.875 L 446.183,541.868z"/>
    <path style="fill: none; fill-opacity:0; stroke-width: 0.02; stroke: #494936" d="M 446.183 541.868 L 525.96,541.868 L 525.96,604.857 L 446.183,604.857 L 446.183,541.868"/>
    <path style="fill: #ffffff" d="M 453.039 549.955 L 519.122,549.955 L 519.122,598.634 L 453.039,598.634 L 453.039,549.955z"/>
    <path style="fill: none; fill-opacity:0; stroke-width: 0.02; stroke: #494936" d="M 453.039 549.955 L 519.122,549.955 L 519.122,598.616 L 453.039,598.616 L 453.039,549.955"/>
    <path style="fill: #7a7a5a" d="M 525.363 604.277 L 534.118,595.54 L 534.118,533.764 L 525.363,541.868 L 525.363,604.277z"/>
    <path style="fill: none; fill-opacity:0; stroke-width: 0.02; stroke: #494936" d="M 525.363 604.277 L 534.118,595.54 L 534.118,533.764 L 525.363,541.868 L 525.363,604.277"/>
  </g>
  <g>
    <path style="fill: #b7b796" d="M 936.641 630.765 L 982.863,630.765 L 982.863,532.192 L 936.641,532.192 L 936.641,630.765z"/>
    <path style="fill: none; fill-opacity:0; stroke-width: 0.02; stroke: #000000" d="M 936.641 630.765 L 982.863,630.765 L 982.863,532.192 L 936.641,532.192 L 936.641,630.765"/>
    <path style="fill: none; fill-opacity:0; stroke-width: 0.2; stroke: #494936" d="M 936.641 630.765 L 982.863,630.765 L 982.863,532.192 L 936.641,532.192 L 936.641,630.765"/>
    <path style="fill: #c9c9b6" d="M 936.641 532.193 L 945.472,523.417 L 990.038,523.417 L 982.864,532.193 L 936.641,532.193z"/>
    <path style="fill: none; fill-opacity:0; stroke-width: 0.02; stroke: #000000" d="M 936.641 532.193 L 945.472,523.417 L 990.038,523.417 L 982.864,532.193 L 936.641,532.193"/>
    <path style="fill: none; fill-opacity:0; stroke-width: 0.2; stroke: #494936" d="M 936.641 532.193 L 945.472,523.417 L 990.038,523.417 L 982.864,532.193 L 936.641,532.193"/>
    <path style="fill: #7a7a5a" d="M 982.861 630.765 L 990.035,617.1 L 990.035,523.414 L 982.861,532.19 L 982.861,630.761 L 982.861,630.765z"/>
    <path style="fill: none; fill-opacity:0; stroke-width: 0.02; stroke: #000000" d="M 982.861 630.765 L 990.035,617.1 L 990.035,523.414 L 982.861,532.19 L 982.861,630.761 L 982.861,630.765"/>
    <path style="fill: none; fill-opacity:0; stroke-width: 0.2; stroke: #494936" d="M 982.861 630.765 L 990.035,617.1 L 990.035,523.414 L 982.861,532.19 L 982.861,630.761"/>
    <path style="fill: #b7b796" d="M 986.541 635.166 L 982.864,630.765 L 936.641,630.765 L 932.208,635.166 L 986.541,635.166 L 986.541,635.166z"/>
    <path style="fill: none; fill-opacity:0; stroke-width: 0.02; stroke: #000000" d="M 986.541 635.166 L 982.864,630.765 L 936.641,630.765 L 932.208,635.166 L 986.541,635.166 L 986.541,635.166"/>
    <path style="fill: none; fill-opacity:0; stroke-width: 0.2; stroke: #494936" d="M 986.541 635.166 L 982.864,630.765 L 936.641,630.765 L 932.208,635.166 L 986.541,635.166"/>
    <path style="fill: #b7b796" d="M 986.541 635.166 L 993.69,619.875 L 990.035,617.1 L 982.861,630.765 L 986.538,635.166 L 986.541,635.166z"/>
    <path style="fill: none; fill-opacity:0; stroke-width: 0.02; stroke: #000000" d="M 986.541 635.166 L 993.69,619.875 L 990.035,617.1 L 982.861,630.765 L 986.538,635.166 L 986.541,635.166"/>
    <path style="fill: none; fill-opacity:0; stroke-width: 0.2; stroke: #494936" d="M 986.541 635.166 L 993.69,619.875 L 990.035,617.1 L 982.861,630.765 L 986.538,635.166"/>
    <path style="fill: #b7b796" d="M 982.861 630.765 L 936.637,630.765 L 982.861,630.765z"/>
    <path style="fill: none; fill-opacity:0; stroke-width: 0.2; stroke: #494936" d="M 982.861 630.765 L 936.637,630.765"/>
    <path style="fill: #b7b796" d="M 990.035 617.1 L 982.861,630.765 L 990.035,617.1z"/>
    <path style="fill: none; fill-opacity:0; stroke-width: 0.2; stroke: #494936" d="M 990.035 617.1 L 982.861,630.765"/>
    <path style="fill: #b7b796" d="M 936.662 536.739 L 982.679,536.739 L 936.662,536.739z"/>
    <path style="fill: none; fill-opacity:0; stroke-width: 0.2; stroke: #494936" d="M 936.662 536.739 L 982.679,536.739"/>
    <path style="fill: #b7b796" d="M 936.622 537.298 L 982.639,537.298 L 936.622,537.298z"/>
    <path style="fill: none; fill-opacity:0; stroke-width: 0.2; stroke: #494936" d="M 936.622 537.298 L 982.639,537.298"/>
    <path style="fill: #b7b796" d="M 973.283 549.096 L 939.746,549.096 L 939.746,552.182 L 945.944,552.182 L 973.283,549.096z"/>
    <path style="fill: none; fill-opacity:0; stroke-width: 0.2; stroke: #494936" d="M 973.283 549.096 L 939.746,549.096 L 939.746,552.182 L 945.944,552.182"/>
    <path style="fill: #b7b796" d="M 973.283 554.818 L 939.746,554.818 L 939.746,557.905 L 945.944,557.905 L 973.283,554.818z"/>
    <path style="fill: none; fill-opacity:0; stroke-width: 0.2; stroke: #494936" d="M 973.283 554.818 L 939.746,554.818 L 939.746,557.905 L 945.944,557.905"/>
    <path style="fill: #b7b796" d="M 973.283 560.544 L 939.746,560.544 L 939.746,563.631 L 945.944,563.631 L 973.283,560.544z"/>
    <path style="fill: none; fill-opacity:0; stroke-width: 0.2; stroke: #494936" d="M 973.283 560.544 L 939.746,560.544 L 939.746,563.631 L 945.944,563.631"/>
    <path style="fill: #b7b796" d="M 973.283 566.267 L 939.746,566.267 L 939.746,569.354 L 945.944,569.354 L 973.283,566.267z"/>
    <path style="fill: none; fill-opacity:0; stroke-width: 0.2; stroke: #494936" d="M 973.283 566.267 L 939.746,566.267 L 939.746,569.354 L 945.944,569.354"/>
    <path style="fill: #b7b796" d="M 973.283 571.993 L 939.746,571.993 L 939.746,575.08 L 945.944,575.08 L 973.283,571.993z"/>
    <path style="fill: none; fill-opacity:0; stroke-width: 0.2; stroke: #494936" d="M 973.283 571.993 L 939.746,571.993 L 939.746,575.08 L 945.944,575.08"/>
    <path style="fill: #b7b796" d="M 973.283 577.716 L 939.746,577.716 L 939.746,580.803 L 945.944,580.803 L 973.283,577.716z"/>
    <path style="fill: none; fill-opacity:0; stroke-width: 0.2; stroke: #494936" d="M 973.283 577.716 L 939.746,577.716 L 939.746,580.803 L 945.944,580.803"/>
    <path style="fill: #b7b796" d="M 973.283 583.439 L 939.746,583.439 L 939.746,586.525 L 945.944,586.525 L 973.283,583.439z"/>
    <path style="fill: none; fill-opacity:0; stroke-width: 0.2; stroke: #494936" d="M 973.283 583.439 L 939.746,583.439 L 939.746,586.525 L 945.944,586.525"/>
    <path style="fill: #b7b796" d="M 973.283 589.165 L 939.746,589.165 L 939.746,592.251 L 945.944,592.251 L 973.283,589.165z"/>
    <path style="fill: none; fill-opacity:0; stroke-width: 0.2; stroke: #494936" d="M 973.283 589.165 L 939.746,589.165 L 939.746,592.251 L 945.944,592.251"/>
    <path style="fill: #b7b796" d="M 973.283 594.887 L 939.746,594.887 L 939.746,597.974 L 945.944,597.974 L 973.283,594.887z"/>
    <path style="fill: none; fill-opacity:0; stroke-width: 0.2; stroke: #494936" d="M 973.283 594.887 L 939.746,594.887 L 939.746,597.974 L 945.944,597.974"/>
    <path style="fill: #b7b796" d="M 973.283 600.613 L 939.746,600.613 L 939.746,603.7 L 945.944,603.7 L 973.283,600.613z"/>
    <path style="fill: none; fill-opacity:0; stroke-width: 0.2; stroke: #494936" d="M 973.283 600.613 L 939.746,600.613 L 939.746,603.7 L 945.944,603.7"/>
    <path style="fill: #b7b796" d="M 973.283 606.336 L 939.746,606.336 L 939.746,609.423 L 945.944,609.423 L 973.283,606.336z"/>
    <path style="fill: none; fill-opacity:0; stroke-width: 0.2; stroke: #494936" d="M 973.283 606.336 L 939.746,606.336 L 939.746,609.423 L 945.944,609.423"/>
    <path style="fill: #b7b796" d="M 973.283 612.059 L 939.746,612.059 L 939.746,615.146 L 945.944,615.146 L 973.283,612.059z"/>
    <path style="fill: none; fill-opacity:0; stroke-width: 0.2; stroke: #494936" d="M 973.283 612.059 L 939.746,612.059 L 939.746,615.146 L 945.944,615.146"/>
    <path style="fill: #b7b796" d="M 973.283 617.785 L 939.746,617.785 L 939.746,620.872 L 945.944,620.872 L 973.283,617.785z"/>
    <path style="fill: none; fill-opacity:0; stroke-width: 0.2; stroke: #494936" d="M 973.283 617.785 L 939.746,617.785 L 939.746,620.872 L 945.944,620.872"/>
    <path style="fill: #b7b796" d="M 973.283 623.508 L 939.746,623.508 L 939.746,626.594 L 945.944,626.594 L 973.283,623.508z"/>
    <path style="fill: none; fill-opacity:0; stroke-width: 0.2; stroke: #494936" d="M 973.283 623.508 L 939.746,623.508 L 939.746,626.594 L 945.944,626.594"/>
  </g>
</svg>
