<?xml version="1.0" encoding="UTF-8" standalone="no"?>
<!DOCTYPE svg PUBLIC "-//W3C//DTD SVG 1.0//EN" "http://www.w3.org/TR/2001/PR-SVG-20010719/DTD/svg10.dtd">
<svg width="36cm" height="28cm" viewBox="453 253 702 549" xmlns="http://www.w3.org/2000/svg" xmlns:xlink="http://www.w3.org/1999/xlink">
  <g>
    <rect style="fill: #ffffff" x="544.506" y="280.663" width="161.573" height="206.672"/>
    <rect style="fill: none; fill-opacity:0; stroke-width: 2; stroke: #000000" x="544.506" y="280.663" width="161.573" height="206.672"/>
  </g>
  <g>
    <path style="fill: #b7b79d" d="M 601.16 314.439 L 641.129,314.439 L 641.129,321.826 L 601.16,321.826 L 601.16,314.439z"/>
    <path style="fill: none; fill-opacity:0; stroke-width: 0.02; stroke: #494936" d="M 601.16 314.439 L 641.129,314.439 L 641.129,321.826 L 601.16,321.826 L 601.16,314.439"/>
    <path style="fill: #c9c9b6" d="M 601.16 314.439 L 605.398,310.422 L 645.367,310.422 L 641.129,314.439 L 601.16,314.439z"/>
    <path style="fill: none; fill-opacity:0; stroke-width: 0.02; stroke: #494936" d="M 601.16 314.439 L 605.398,310.422 L 645.367,310.422 L 641.129,314.439 L 601.16,314.439"/>
    <path style="fill: none; fill-opacity:0; stroke-width: 2.12; stroke: #000000" d="M 638.893 317.802 L 629.302,317.802"/>
    <path style="fill: #7a7a5a" d="M 641.129 321.826 L 645.367,317.575 L 645.367,310.422 L 641.129,314.439 L 641.129,321.826z"/>
    <path style="fill: none; fill-opacity:0; stroke-width: 0.02; stroke: #494936" d="M 641.129 321.826 L 645.367,317.575 L 645.367,310.422 L 641.129,314.439 L 641.129,321.826"/>
    <path style="fill: #c9c9b6" d="M 601.387 326.511 L 605.845,320.925 L 636.664,320.925 L 632.205,326.511 L 601.387,326.511z"/>
    <path style="fill: none; fill-opacity:0; stroke-width: 0.02; stroke: #494936" d="M 601.387 326.511 L 605.845,320.925 L 636.664,320.925 L 632.205,326.511 L 601.387,326.511"/>
    <path style="fill: #7a7a5a" d="M 632.205 327.626 L 636.664,322.941 L 636.664,320.925 L 632.205,326.511 L 632.205,327.626z"/>
    <path style="fill: none; fill-opacity:0; stroke-width: 0.02; stroke: #494936" d="M 632.205 327.626 L 636.664,322.941 L 636.664,320.925 L 632.205,326.511 L 632.205,327.626"/>
    <path style="fill: #b7b79d" d="M 601.387 326.511 L 632.205,326.511 L 632.205,327.626 L 601.387,327.626 L 601.387,326.511z"/>
    <path style="fill: none; fill-opacity:0; stroke-width: 0.02; stroke: #494936" d="M 601.387 326.511 L 632.205,326.511 L 632.205,327.626 L 601.387,327.626 L 601.387,326.511"/>
    <path style="fill: #000000" d="M 607.187 313.551 L 610.543,310.422 L 638.893,310.422 L 635.776,313.551 L 607.187,313.551z"/>
    <path style="fill: none; fill-opacity:0; stroke-width: 0.02; stroke: #000000" d="M 607.187 313.551 L 610.543,310.422 L 638.893,310.422 L 635.776,313.551 L 607.187,313.551"/>
    <path style="fill: #c9c9b6" d="M 606.96 290.529 L 610.096,287.626 L 638.459,287.626 L 635.323,290.529 L 606.96,290.529z"/>
    <path style="fill: none; fill-opacity:0; stroke-width: 0.02; stroke: #494936" d="M 606.96 290.529 L 610.096,287.626 L 638.459,287.626 L 635.323,290.529 L 606.96,290.529"/>
    <path style="fill: #b7b79d" d="M 606.96 290.529 L 635.549,290.529 L 635.549,313.098 L 606.96,313.098 L 606.96,290.529z"/>
    <path style="fill: none; fill-opacity:0; stroke-width: 0.02; stroke: #494936" d="M 606.96 290.529 L 635.537,290.529 L 635.537,313.092 L 606.96,313.092 L 606.96,290.529"/>
    <path style="fill: #ffffff" d="M 609.416 293.425 L 633.087,293.425 L 633.087,310.862 L 609.416,310.862 L 609.416,293.425z"/>
    <path style="fill: none; fill-opacity:0; stroke-width: 0.02; stroke: #494936" d="M 609.416 293.425 L 633.087,293.425 L 633.087,310.856 L 609.416,310.856 L 609.416,293.425"/>
    <path style="fill: #7a7a5a" d="M 635.323 312.884 L 638.459,309.754 L 638.459,287.626 L 635.323,290.529 L 635.323,312.884z"/>
    <path style="fill: none; fill-opacity:0; stroke-width: 0.02; stroke: #494936" d="M 635.323 312.884 L 638.459,309.754 L 638.459,287.626 L 635.323,290.529 L 635.323,312.884"/>
  </g>
  <g>
    <rect style="fill: #ffffff" x="707.009" y="280.849" width="198.542" height="206.486"/>
    <rect style="fill: none; fill-opacity:0; stroke-width: 2; stroke: #000000" x="707.009" y="280.849" width="198.542" height="206.486"/>
  </g>
  <g>
    <path style="fill: #b7b796" d="M 770.403 326.672 L 786.948,326.672 L 786.948,291.39 L 770.403,291.39 L 770.403,326.672z"/>
    <path style="fill: none; fill-opacity:0; stroke-width: 0.02; stroke: #000000" d="M 770.403 326.672 L 786.948,326.672 L 786.948,291.39 L 770.403,291.39 L 770.403,326.672"/>
    <path style="fill: none; fill-opacity:0; stroke-width: 0.2; stroke: #494936" d="M 770.403 326.672 L 786.948,326.672 L 786.948,291.39 L 770.403,291.39 L 770.403,326.672"/>
    <path style="fill: #c9c9b6" d="M 770.403 291.39 L 773.564,288.249 L 789.516,288.249 L 786.948,291.39 L 770.403,291.39z"/>
    <path style="fill: none; fill-opacity:0; stroke-width: 0.02; stroke: #000000" d="M 770.403 291.39 L 773.564,288.249 L 789.516,288.249 L 786.948,291.39 L 770.403,291.39"/>
    <path style="fill: none; fill-opacity:0; stroke-width: 0.2; stroke: #494936" d="M 770.403 291.39 L 773.564,288.249 L 789.516,288.249 L 786.948,291.39 L 770.403,291.39"/>
    <path style="fill: #7a7a5a" d="M 786.947 326.672 L 789.515,321.781 L 789.515,288.248 L 786.947,291.389 L 786.947,326.671 L 786.947,326.672z"/>
    <path style="fill: none; fill-opacity:0; stroke-width: 0.02; stroke: #000000" d="M 786.947 326.672 L 789.515,321.781 L 789.515,288.248 L 786.947,291.389 L 786.947,326.671 L 786.947,326.672"/>
    <path style="fill: none; fill-opacity:0; stroke-width: 0.2; stroke: #494936" d="M 786.947 326.672 L 789.515,321.781 L 789.515,288.248 L 786.947,291.389 L 786.947,326.671"/>
    <path style="fill: #b7b796" d="M 788.264 328.248 L 786.948,326.672 L 770.403,326.672 L 768.817,328.248 L 788.264,328.248 L 788.264,328.248z"/>
    <path style="fill: none; fill-opacity:0; stroke-width: 0.02; stroke: #000000" d="M 788.264 328.248 L 786.948,326.672 L 770.403,326.672 L 768.817,328.248 L 788.264,328.248 L 788.264,328.248"/>
    <path style="fill: none; fill-opacity:0; stroke-width: 0.2; stroke: #494936" d="M 788.264 328.248 L 786.948,326.672 L 770.403,326.672 L 768.817,328.248 L 788.264,328.248"/>
    <path style="fill: #b7b796" d="M 788.264 328.248 L 790.823,322.775 L 789.515,321.781 L 786.947,326.672 L 788.263,328.248 L 788.264,328.248z"/>
    <path style="fill: none; fill-opacity:0; stroke-width: 0.02; stroke: #000000" d="M 788.264 328.248 L 790.823,322.775 L 789.515,321.781 L 786.947,326.672 L 788.263,328.248 L 788.264,328.248"/>
    <path style="fill: none; fill-opacity:0; stroke-width: 0.2; stroke: #494936" d="M 788.264 328.248 L 790.823,322.775 L 789.515,321.781 L 786.947,326.672 L 788.263,328.248"/>
    <path style="fill: #b7b796" d="M 786.947 326.672 L 770.402,326.672 L 786.947,326.672z"/>
    <path style="fill: none; fill-opacity:0; stroke-width: 0.2; stroke: #494936" d="M 786.947 326.672 L 770.402,326.672"/>
    <path style="fill: #b7b796" d="M 789.515 321.781 L 786.947,326.672 L 789.515,321.781z"/>
    <path style="fill: none; fill-opacity:0; stroke-width: 0.2; stroke: #494936" d="M 789.515 321.781 L 786.947,326.672"/>
    <path style="fill: #b7b796" d="M 770.411 293.018 L 786.882,293.018 L 770.411,293.018z"/>
    <path style="fill: none; fill-opacity:0; stroke-width: 0.2; stroke: #494936" d="M 770.411 293.018 L 786.882,293.018"/>
    <path style="fill: #b7b796" d="M 770.396 293.218 L 786.868,293.218 L 770.396,293.218z"/>
    <path style="fill: none; fill-opacity:0; stroke-width: 0.2; stroke: #494936" d="M 770.396 293.218 L 786.868,293.218"/>
    <path style="fill: #b7b796" d="M 783.519 297.44 L 771.515,297.44 L 771.515,298.545 L 773.733,298.545 L 783.519,297.44z"/>
    <path style="fill: none; fill-opacity:0; stroke-width: 0.2; stroke: #494936" d="M 783.519 297.44 L 771.515,297.44 L 771.515,298.545 L 773.733,298.545"/>
    <path style="fill: #b7b796" d="M 783.519 299.489 L 771.515,299.489 L 771.515,300.594 L 773.733,300.594 L 783.519,299.489z"/>
    <path style="fill: none; fill-opacity:0; stroke-width: 0.2; stroke: #494936" d="M 783.519 299.489 L 771.515,299.489 L 771.515,300.594 L 773.733,300.594"/>
    <path style="fill: #b7b796" d="M 783.519 301.538 L 771.515,301.538 L 771.515,302.643 L 773.733,302.643 L 783.519,301.538z"/>
    <path style="fill: none; fill-opacity:0; stroke-width: 0.2; stroke: #494936" d="M 783.519 301.538 L 771.515,301.538 L 771.515,302.643 L 773.733,302.643"/>
    <path style="fill: #b7b796" d="M 783.519 303.587 L 771.515,303.587 L 771.515,304.691 L 773.733,304.691 L 783.519,303.587z"/>
    <path style="fill: none; fill-opacity:0; stroke-width: 0.2; stroke: #494936" d="M 783.519 303.587 L 771.515,303.587 L 771.515,304.691 L 773.733,304.691"/>
    <path style="fill: #b7b796" d="M 783.519 305.636 L 771.515,305.636 L 771.515,306.741 L 773.733,306.741 L 783.519,305.636z"/>
    <path style="fill: none; fill-opacity:0; stroke-width: 0.2; stroke: #494936" d="M 783.519 305.636 L 771.515,305.636 L 771.515,306.741 L 773.733,306.741"/>
    <path style="fill: #b7b796" d="M 783.519 307.684 L 771.515,307.684 L 771.515,308.789 L 773.733,308.789 L 783.519,307.684z"/>
    <path style="fill: none; fill-opacity:0; stroke-width: 0.2; stroke: #494936" d="M 783.519 307.684 L 771.515,307.684 L 771.515,308.789 L 773.733,308.789"/>
    <path style="fill: #b7b796" d="M 783.519 309.733 L 771.515,309.733 L 771.515,310.838 L 773.733,310.838 L 783.519,309.733z"/>
    <path style="fill: none; fill-opacity:0; stroke-width: 0.2; stroke: #494936" d="M 783.519 309.733 L 771.515,309.733 L 771.515,310.838 L 773.733,310.838"/>
    <path style="fill: #b7b796" d="M 783.519 311.782 L 771.515,311.782 L 771.515,312.887 L 773.733,312.887 L 783.519,311.782z"/>
    <path style="fill: none; fill-opacity:0; stroke-width: 0.2; stroke: #494936" d="M 783.519 311.782 L 771.515,311.782 L 771.515,312.887 L 773.733,312.887"/>
    <path style="fill: #b7b796" d="M 783.519 313.831 L 771.515,313.831 L 771.515,314.936 L 773.733,314.936 L 783.519,313.831z"/>
    <path style="fill: none; fill-opacity:0; stroke-width: 0.2; stroke: #494936" d="M 783.519 313.831 L 771.515,313.831 L 771.515,314.936 L 773.733,314.936"/>
    <path style="fill: #b7b796" d="M 783.519 315.88 L 771.515,315.88 L 771.515,316.985 L 773.733,316.985 L 783.519,315.88z"/>
    <path style="fill: none; fill-opacity:0; stroke-width: 0.2; stroke: #494936" d="M 783.519 315.88 L 771.515,315.88 L 771.515,316.985 L 773.733,316.985"/>
    <path style="fill: #b7b796" d="M 783.519 317.929 L 771.515,317.929 L 771.515,319.034 L 773.733,319.034 L 783.519,317.929z"/>
    <path style="fill: none; fill-opacity:0; stroke-width: 0.2; stroke: #494936" d="M 783.519 317.929 L 771.515,317.929 L 771.515,319.034 L 773.733,319.034"/>
    <path style="fill: #b7b796" d="M 783.519 319.977 L 771.515,319.977 L 771.515,321.082 L 773.733,321.082 L 783.519,319.977z"/>
    <path style="fill: none; fill-opacity:0; stroke-width: 0.2; stroke: #494936" d="M 783.519 319.977 L 771.515,319.977 L 771.515,321.082 L 773.733,321.082"/>
    <path style="fill: #b7b796" d="M 783.519 322.027 L 771.515,322.027 L 771.515,323.131 L 773.733,323.131 L 783.519,322.027z"/>
    <path style="fill: none; fill-opacity:0; stroke-width: 0.2; stroke: #494936" d="M 783.519 322.027 L 771.515,322.027 L 771.515,323.131 L 773.733,323.131"/>
    <path style="fill: #b7b796" d="M 783.519 324.075 L 771.515,324.075 L 771.515,325.18 L 773.733,325.18 L 783.519,324.075z"/>
    <path style="fill: none; fill-opacity:0; stroke-width: 0.2; stroke: #494936" d="M 783.519 324.075 L 771.515,324.075 L 771.515,325.18 L 773.733,325.18"/>
  </g>
  <g>
    <line style="fill: none; fill-opacity:0; stroke-width: 2; stroke: #000000" x1="594.004" y1="354.13" x2="787.56" y2="354.13"/>
    <polygon style="fill: #000000" points="795.06,354.13 785.06,359.13 787.56,354.13 785.06,349.13 "/>
    <polygon style="fill: none; fill-opacity:0; stroke-width: 2; stroke: #000000" points="795.06,354.13 785.06,359.13 787.56,354.13 785.06,349.13 "/>
  </g>
  <text font-size="18.0619" style="fill: #000000;text-anchor:start;font-family:sans-serif;font-style:normal;font-weight:normal" x="604.008" y="272.603">
    <tspan x="604.008" y="272.603">Client</tspan>
  </text>
  <text font-size="18.0619" style="fill: #000000;text-anchor:start;font-family:sans-serif;font-style:normal;font-weight:normal" x="759.82" y="269.985">
    <tspan x="759.82" y="269.985">Server</tspan>
  </text>
  <text font-size="18.0619" style="fill: #000000;text-anchor:start;font-family:sans-serif;font-style:normal;font-weight:normal" x="946.861" y="351.544">
    <tspan x="946.861" y="351.544">Database</tspan>
  </text>
  <text font-size="5.64436" style="fill: #000000;text-anchor:start;font-family:sans-serif;font-style:normal;font-weight:normal" x="595.064" y="348.474">
    <tspan x="595.064" y="348.474">1) Login UserName/Password</tspan>
  </text>
  <text font-size="5.64436" style="fill: #000000;text-anchor:start;font-family:sans-serif;font-style:normal;font-weight:normal" x="714.162" y="373.117">
    <tspan x="714.162" y="373.117">2) Create new key pairs [public, private] keys for this client</tspan>
  </text>
  <text font-size="5.64436" style="fill: #000000;text-anchor:start;font-family:sans-serif;font-style:normal;font-weight:normal" x="713.619" y="406.464">
    <tspan x="713.619" y="406.464">4) Bring Server Application Key. [Server_Key]</tspan>
  </text>
  <text font-size="5.64436" style="fill: #000000;text-anchor:start;font-family:sans-serif;font-style:normal;font-weight:normal" x="764.87" y="387.772">
    <tspan x="764.87" y="387.772">3) Save key pairs into database</tspan>
  </text>
  <text font-size="5.64436" style="fill: #000000;text-anchor:start;font-family:sans-serif;font-style:normal;font-weight:normal" x="713.06" y="418.033">
    <tspan x="713.06" y="418.033">5) Create shared key by HMAC([Server_Key], [Private_Key])</tspan>
  </text>
  <g>
    <line style="fill: none; fill-opacity:0; stroke-width: 2; stroke: #000000" x1="817.223" y1="469.537" x2="603.219" y2="469.019"/>
    <polygon style="fill: #000000" points="595.719,469.001 605.731,464.025 603.219,469.019 605.707,474.025 "/>
    <polygon style="fill: none; fill-opacity:0; stroke-width: 2; stroke: #000000" points="595.719,469.001 605.731,464.025 603.219,469.019 605.707,474.025 "/>
  </g>
  <text font-size="5.64436" style="fill: #000000;text-anchor:start;font-family:sans-serif;font-style:normal;font-weight:normal" x="713.06" y="429.037">
    <tspan x="713.06" y="429.037">6) [Shared_Key]: 9f9de38c4405a747fc25dd146b2ee6a3</tspan>
    <tspan x="713.06" y="436.093">                           0e8ea627c7da26d5a616c4c2fcb9ec89</tspan>
    <tspan x="713.06" y="443.148">                           6b4020febcb4971a65b97959c5d5625a</tspan>
  </text>
  <text font-size="5.64436" style="fill: #000000;text-anchor:start;font-family:sans-serif;font-style:normal;font-weight:normal" x="713.885" y="464.984">
    <tspan x="713.885" y="464.984">7) Send [Shared_Key] &amp; [Public_Key]</tspan>
  </text>
  <text font-size="28.2218" style="fill: #000000;text-anchor:start;font-family:sans-serif;font-style:normal;font-weight:normal" x="453.269" y="395.027">
    <tspan x="453.269" y="395.027">Login</tspan>
  </text>
  <text font-size="28.2218" style="fill: #000000;text-anchor:start;font-family:sans-serif;font-style:normal;font-weight:normal" x="455.171" y="593.792">
    <tspan x="455.171" y="593.792">Verify</tspan>
  </text>
  <g>
    <rect style="fill: #ffffff" x="544.502" y="488.686" width="161.573" height="205.891"/>
    <rect style="fill: none; fill-opacity:0; stroke-width: 2; stroke: #000000" x="544.502" y="488.686" width="161.573" height="205.891"/>
  </g>
  <g>
    <path style="fill: #b7b79d" d="M 601.155 522.462 L 641.124,522.462 L 641.124,529.849 L 601.155,529.849 L 601.155,522.462z"/>
    <path style="fill: none; fill-opacity:0; stroke-width: 0.02; stroke: #494936" d="M 601.155 522.462 L 641.124,522.462 L 641.124,529.849 L 601.155,529.849 L 601.155,522.462"/>
    <path style="fill: #c9c9b6" d="M 601.155 522.462 L 605.393,518.445 L 645.362,518.445 L 641.124,522.462 L 601.155,522.462z"/>
    <path style="fill: none; fill-opacity:0; stroke-width: 0.02; stroke: #494936" d="M 601.155 522.462 L 605.393,518.445 L 645.362,518.445 L 641.124,522.462 L 601.155,522.462"/>
    <path style="fill: none; fill-opacity:0; stroke-width: 2.12; stroke: #000000" d="M 638.888 525.825 L 629.298,525.825"/>
    <path style="fill: #7a7a5a" d="M 641.124 529.849 L 645.362,525.599 L 645.362,518.445 L 641.124,522.462 L 641.124,529.849z"/>
    <path style="fill: none; fill-opacity:0; stroke-width: 0.02; stroke: #494936" d="M 641.124 529.849 L 645.362,525.599 L 645.362,518.445 L 641.124,522.462 L 641.124,529.849"/>
    <path style="fill: #c9c9b6" d="M 601.382 534.534 L 605.841,528.949 L 636.659,528.949 L 632.201,534.534 L 601.382,534.534z"/>
    <path style="fill: none; fill-opacity:0; stroke-width: 0.02; stroke: #494936" d="M 601.382 534.534 L 605.841,528.949 L 636.659,528.949 L 632.201,534.534 L 601.382,534.534"/>
    <path style="fill: #7a7a5a" d="M 632.201 535.649 L 636.659,530.964 L 636.659,528.949 L 632.201,534.534 L 632.201,535.649z"/>
    <path style="fill: none; fill-opacity:0; stroke-width: 0.02; stroke: #494936" d="M 632.201 535.649 L 636.659,530.964 L 636.659,528.949 L 632.201,534.534 L 632.201,535.649"/>
    <path style="fill: #b7b79d" d="M 601.382 534.534 L 632.201,534.534 L 632.201,535.649 L 601.382,535.649 L 601.382,534.534z"/>
    <path style="fill: none; fill-opacity:0; stroke-width: 0.02; stroke: #494936" d="M 601.382 534.534 L 632.201,534.534 L 632.201,535.649 L 601.382,535.649 L 601.382,534.534"/>
    <path style="fill: #000000" d="M 607.182 521.575 L 610.538,518.445 L 638.888,518.445 L 635.771,521.575 L 607.182,521.575z"/>
    <path style="fill: none; fill-opacity:0; stroke-width: 0.02; stroke: #000000" d="M 607.182 521.575 L 610.538,518.445 L 638.888,518.445 L 635.771,521.575 L 607.182,521.575"/>
    <path style="fill: #c9c9b6" d="M 606.955 498.552 L 610.091,495.649 L 638.454,495.649 L 635.318,498.552 L 606.955,498.552z"/>
    <path style="fill: none; fill-opacity:0; stroke-width: 0.02; stroke: #494936" d="M 606.955 498.552 L 610.091,495.649 L 638.454,495.649 L 635.318,498.552 L 606.955,498.552"/>
    <path style="fill: #b7b79d" d="M 606.955 498.552 L 635.545,498.552 L 635.545,521.121 L 606.955,521.121 L 606.955,498.552z"/>
    <path style="fill: none; fill-opacity:0; stroke-width: 0.02; stroke: #494936" d="M 606.955 498.552 L 635.532,498.552 L 635.532,521.115 L 606.955,521.115 L 606.955,498.552"/>
    <path style="fill: #ffffff" d="M 609.411 501.449 L 633.082,501.449 L 633.082,518.886 L 609.411,518.886 L 609.411,501.449z"/>
    <path style="fill: none; fill-opacity:0; stroke-width: 0.02; stroke: #494936" d="M 609.411 501.449 L 633.082,501.449 L 633.082,518.879 L 609.411,518.879 L 609.411,501.449"/>
    <path style="fill: #7a7a5a" d="M 635.318 520.907 L 638.454,517.777 L 638.454,495.649 L 635.318,498.552 L 635.318,520.907z"/>
    <path style="fill: none; fill-opacity:0; stroke-width: 0.02; stroke: #494936" d="M 635.318 520.907 L 638.454,517.777 L 638.454,495.649 L 635.318,498.552 L 635.318,520.907"/>
  </g>
  <g>
    <rect style="fill: #ffffff" x="707.004" y="488.872" width="198.047" height="206.164"/>
    <rect style="fill: none; fill-opacity:0; stroke-width: 2; stroke: #000000" x="707.004" y="488.872" width="198.047" height="206.164"/>
  </g>
  <g>
    <rect style="fill: #ffffff" x="904.834" y="362.082" width="189.447" height="274.16"/>
    <rect style="fill: none; fill-opacity:0; stroke-width: 2; stroke: #000000" x="904.834" y="362.082" width="189.447" height="274.16"/>
  </g>
  <g>
    <path style="fill: #a5a585" d="M 1030.01 400.165 L 1029.98,399.777 L 1029.89,399.395 L 1029.75,399.013 L 1029.55,398.637 L 1029.3,398.261 L 1028.99,397.891 L 1028.62,397.528 L 1028.21,397.17 L 1027.73,396.818 L 1027.21,396.485 L 1026.64,396.151 L 1026.03,395.824 L 1025.36,395.515 L 1024.65,395.218 L 1023.9,394.933 L 1023.1,394.66 L 1022.26,394.405 L 1021.39,394.163 L 1020.49,393.938 L 1019.54,393.726 L 1018.58,393.526 L 1017.58,393.35 L 1016.55,393.181 L 1015.52,393.041 L 1014.45,392.92 L 1013.36,392.817 L 1012.27,392.726 L 1011.16,392.665 L 1010.05,392.611 L 1008.93,392.574 L 1007.8,392.574 L 1007.8,392.574 L 1006.68,392.574 L 1005.55,392.611 L 1004.44,392.665 L 1003.33,392.726 L 1002.24,392.817 L 1001.15,392.92 L 1000.09,393.041 L 999.049,393.181 L 998.025,393.35 L 997.024,393.526 L 996.06,393.726 L 995.121,393.938 L 994.217,394.163 L 993.344,394.405 L 992.507,394.66 L 991.707,394.933 L 990.961,395.218 L 990.246,395.515 L 989.579,395.824 L 988.961,396.151 L 988.391,396.485 L 987.869,396.818 L 987.396,397.17 L 986.978,397.528 L 986.614,397.891 L 986.305,398.261 L 986.056,398.637 L 985.856,399.013 L 985.711,399.395 L 985.632,399.777 L 985.602,400.165 L 985.602,400.165 L 985.632,400.553 L 985.711,400.929 L 985.856,401.317 L 986.056,401.693 L 986.305,402.069 L 986.614,402.439 L 986.978,402.802 L 987.396,403.16 L 987.869,403.506 L 988.391,403.845 L 988.961,404.179 L 989.579,404.506 L 990.246,404.815 L 990.961,405.113 L 991.707,405.397 L 992.507,405.67 L 993.344,405.925 L 994.217,406.167 L 995.121,406.392 L 996.06,406.604 L 997.024,406.804 L 998.025,406.98 L 999.049,407.144 L 1000.09,407.289 L 1001.15,407.41 L 1002.24,407.513 L 1003.33,407.598 L 1004.44,407.665 L 1005.55,407.714 L 1006.68,407.75 L 1007.8,407.756 L 1007.8,407.756 L 1008.93,407.75 L 1010.05,407.714 L 1011.16,407.665 L 1012.27,407.598 L 1013.36,407.513 L 1014.45,407.41 L 1015.52,407.289 L 1016.55,407.144 L 1017.58,406.98 L 1018.58,406.804 L 1019.54,406.604 L 1020.49,406.392 L 1021.39,406.167 L 1022.26,405.925 L 1023.1,405.67 L 1023.9,405.397 L 1024.65,405.113 L 1025.36,404.815 L 1026.03,404.506 L 1026.64,404.179 L 1027.21,403.845 L 1027.73,403.506 L 1028.21,403.16 L 1028.62,402.802 L 1028.99,402.439 L 1029.3,402.069 L 1029.55,401.693 L 1029.75,401.317 L 1029.89,400.929 L 1029.98,400.553 L 1030.01,400.165z"/>
    <path style="fill: none; fill-opacity:0; stroke-width: 0.02; stroke: #494936" d="M 1029.75 400.044 L 1029.72,399.656 L 1029.64,399.286 L 1029.5,398.91 L 1029.3,398.54 L 1029.04,398.164 L 1028.73,397.807 L 1028.38,397.443 L 1027.96,397.103 L 1027.49,396.758 L 1026.98,396.418 L 1026.41,396.097 L 1025.79,395.775 L 1025.13,395.472 L 1024.44,395.169 L 1023.67,394.896 L 1022.88,394.63 L 1022.05,394.375 L 1021.19,394.138 L 1020.29,393.92 L 1019.35,393.708 L 1018.38,393.52 L 1017.4,393.344 L 1016.38,393.181 L 1015.35,393.041 L 1014.29,392.92 L 1013.21,392.823 L 1012.12,392.726 L 1011.02,392.671 L 1009.91,392.623 L 1008.79,392.592 L 1007.67,392.574 L 1007.67,392.574 L 1006.56,392.592 L 1005.44,392.623 L 1004.32,392.671 L 1003.23,392.726 L 1002.14,392.823 L 1001.06,392.92 L 1000,393.041 L 998.964,393.181 L 997.952,393.344 L 996.964,393.52 L 995.994,393.708 L 995.06,393.92 L 994.169,394.138 L 993.296,394.375 L 992.459,394.63 L 991.671,394.896 L 990.919,395.169 L 990.222,395.472 L 989.555,395.775 L 988.936,396.097 L 988.378,396.418 L 987.863,396.758 L 987.384,397.103 L 986.972,397.443 L 986.614,397.807 L 986.305,398.164 L 986.05,398.54 L 985.85,398.91 L 985.711,399.286 L 985.632,399.656 L 985.602,400.044 L 985.602,400.044 L 985.632,400.42 L 985.711,400.79 L 985.85,401.172 L 986.05,401.541 L 986.305,401.911 L 986.614,402.275 L 986.972,402.633 L 987.384,402.978 L 987.863,403.318 L 988.378,403.663 L 988.936,403.991 L 989.555,404.3 L 990.222,404.609 L 990.919,404.906 L 991.671,405.185 L 992.459,405.452 L 993.296,405.701 L 994.169,405.943 L 995.06,406.161 L 995.994,406.374 L 996.964,406.568 L 997.952,406.737 L 998.964,406.895 L 1000,407.034 L 1001.06,407.156 L 1002.14,407.259 L 1003.23,407.35 L 1004.32,407.41 L 1005.44,407.459 L 1006.56,407.489 L 1007.67,407.501 L 1007.67,407.501 L 1008.79,407.489 L 1009.91,407.459 L 1011.02,407.41 L 1012.12,407.35 L 1013.21,407.259 L 1014.29,407.156 L 1015.35,407.034 L 1016.38,406.895 L 1017.4,406.737 L 1018.38,406.568 L 1019.35,406.374 L 1020.29,406.161 L 1021.19,405.943 L 1022.05,405.701 L 1022.88,405.452 L 1023.67,405.185 L 1024.44,404.906 L 1025.13,404.609 L 1025.79,404.3 L 1026.41,403.991 L 1026.98,403.663 L 1027.49,403.318 L 1027.96,402.978 L 1028.38,402.633 L 1028.73,402.275 L 1029.04,401.911 L 1029.3,401.541 L 1029.5,401.172 L 1029.64,400.79 L 1029.72,400.42 L 1029.75,400.044"/>
    <path style="fill: #a5a585" d="M 985.602 384.31 L 985.602,400.298 L 1029.75,400.298 L 1029.75,384.31 L 985.602,384.31z"/>
    <path style="fill: #c9c9b6" d="M 1030.01 384.177 L 1029.98,383.783 L 1029.89,383.401 L 1029.75,383.025 L 1029.55,382.649 L 1029.3,382.267 L 1028.99,381.897 L 1028.62,381.527 L 1028.21,381.182 L 1027.73,380.836 L 1027.21,380.485 L 1026.64,380.163 L 1026.03,379.836 L 1025.36,379.521 L 1024.65,379.23 L 1023.9,378.945 L 1023.1,378.666 L 1022.26,378.411 L 1021.39,378.175 L 1020.49,377.944 L 1019.54,377.732 L 1018.58,377.538 L 1017.58,377.362 L 1016.55,377.198 L 1015.52,377.053 L 1014.45,376.932 L 1013.36,376.829 L 1012.27,376.744 L 1011.16,376.677 L 1010.05,376.622 L 1008.93,376.592 L 1007.8,376.586 L 1007.8,376.586 L 1006.68,376.592 L 1005.55,376.622 L 1004.44,376.677 L 1003.33,376.744 L 1002.24,376.829 L 1001.15,376.932 L 1000.09,377.053 L 999.049,377.198 L 998.025,377.362 L 997.024,377.538 L 996.06,377.732 L 995.121,377.944 L 994.217,378.175 L 993.344,378.411 L 992.507,378.666 L 991.707,378.945 L 990.961,379.23 L 990.246,379.521 L 989.579,379.836 L 988.961,380.163 L 988.391,380.485 L 987.869,380.836 L 987.396,381.182 L 986.978,381.527 L 986.614,381.897 L 986.305,382.267 L 986.056,382.649 L 985.856,383.025 L 985.711,383.401 L 985.632,383.783 L 985.602,384.177 L 985.602,384.177 L 985.632,384.559 L 985.711,384.947 L 985.856,385.317 L 986.056,385.705 L 986.305,386.075 L 986.614,386.451 L 986.978,386.814 L 987.396,387.166 L 987.869,387.518 L 988.391,387.857 L 988.961,388.191 L 989.579,388.512 L 990.246,388.821 L 990.961,389.118 L 991.707,389.409 L 992.507,389.676 L 993.344,389.937 L 994.217,390.179 L 995.121,390.404 L 996.06,390.616 L 997.024,390.816 L 998.025,390.986 L 999.049,391.155 L 1000.09,391.295 L 1001.15,391.416 L 1002.24,391.525 L 1003.33,391.604 L 1004.44,391.677 L 1005.55,391.725 L 1006.68,391.756 L 1007.8,391.768 L 1007.8,391.768 L 1008.93,391.756 L 1010.05,391.725 L 1011.16,391.677 L 1012.27,391.604 L 1013.36,391.525 L 1014.45,391.416 L 1015.52,391.295 L 1016.55,391.155 L 1017.58,390.986 L 1018.58,390.816 L 1019.54,390.616 L 1020.49,390.404 L 1021.39,390.179 L 1022.26,389.937 L 1023.1,389.676 L 1023.9,389.409 L 1024.65,389.118 L 1025.36,388.821 L 1026.03,388.512 L 1026.64,388.191 L 1027.21,387.857 L 1027.73,387.518 L 1028.21,387.166 L 1028.62,386.814 L 1028.99,386.451 L 1029.3,386.075 L 1029.55,385.705 L 1029.75,385.317 L 1029.89,384.947 L 1029.98,384.559 L 1030.01,384.177z"/>
    <path style="fill: none; fill-opacity:0; stroke-width: 0.02; stroke: #494936" d="M 1029.75 384.056 L 1029.72,383.668 L 1029.64,383.298 L 1029.5,382.928 L 1029.3,382.552 L 1029.04,382.17 L 1028.73,381.812 L 1028.38,381.467 L 1027.96,381.109 L 1027.49,380.77 L 1026.98,380.424 L 1026.41,380.109 L 1025.79,379.787 L 1025.13,379.478 L 1024.44,379.193 L 1023.67,378.908 L 1022.88,378.647 L 1022.05,378.393 L 1021.19,378.15 L 1020.29,377.926 L 1019.35,377.72 L 1018.38,377.532 L 1017.4,377.356 L 1016.38,377.198 L 1015.35,377.053 L 1014.29,376.932 L 1013.21,376.829 L 1012.12,376.744 L 1011.02,376.677 L 1010.65,376.659 L 1004.69,376.659 L 1004.32,376.677 L 1003.23,376.744 L 1002.14,376.829 L 1001.06,376.932 L 1000,377.053 L 998.964,377.198 L 997.952,377.356 L 996.964,377.532 L 995.994,377.72 L 995.06,377.926 L 994.169,378.15 L 993.296,378.393 L 992.459,378.647 L 991.671,378.908 L 990.919,379.193 L 990.222,379.478 L 989.555,379.787 L 988.936,380.109 L 988.378,380.424 L 987.863,380.77 L 987.384,381.109 L 986.972,381.467 L 986.614,381.812 L 986.305,382.17 L 986.05,382.552 L 985.85,382.928 L 985.711,383.298 L 985.632,383.668 L 985.602,384.056 L 985.602,384.056 L 985.632,384.426 L 985.711,384.807 L 985.85,385.183 L 986.05,385.553 L 986.305,385.923 L 986.614,386.287 L 986.972,386.639 L 987.384,386.996 L 987.863,387.336 L 988.378,387.675 L 988.936,388.003 L 989.555,388.312 L 990.222,388.615 L 990.919,388.918 L 991.671,389.197 L 992.459,389.458 L 993.296,389.706 L 994.169,389.949 L 995.06,390.167 L 995.994,390.379 L 996.964,390.579 L 997.952,390.737 L 998.964,390.907 L 1000,391.04 L 1001.06,391.168 L 1002.14,391.277 L 1003.23,391.362 L 1004.32,391.428 L 1005.44,391.471 L 1006.56,391.495 L 1007.67,391.513 L 1007.67,391.513 L 1008.79,391.495 L 1009.91,391.471 L 1011.02,391.428 L 1012.12,391.362 L 1013.21,391.277 L 1014.29,391.168 L 1015.35,391.04 L 1016.38,390.907 L 1017.4,390.737 L 1018.38,390.579 L 1019.35,390.379 L 1020.29,390.167 L 1021.19,389.949 L 1022.05,389.706 L 1022.88,389.458 L 1023.67,389.197 L 1024.44,388.918 L 1025.13,388.615 L 1025.79,388.312 L 1026.41,388.003 L 1026.98,387.675 L 1027.49,387.336 L 1027.96,386.996 L 1028.38,386.639 L 1028.73,386.287 L 1029.04,385.923 L 1029.3,385.553 L 1029.5,385.183 L 1029.64,384.807 L 1029.72,384.426 L 1029.75,384.056"/>
    <path style="fill: none; fill-opacity:0; stroke-width: 0.02; stroke: #000000" d="M 985.602 384.056 L 985.602,400.032"/>
    <path style="fill: none; fill-opacity:0; stroke-width: 0.02; stroke: #000000" d="M 1029.75 384.056 L 1029.75,400.032"/>
  </g>
  <g>
    <line style="fill: none; fill-opacity:0; stroke-width: 2; stroke: #000000" x1="561.445" y1="559.403" x2="755.002" y2="559.403"/>
    <polygon style="fill: #000000" points="762.502,559.403 752.502,564.403 755.002,559.403 752.502,554.403 "/>
    <polygon style="fill: none; fill-opacity:0; stroke-width: 2; stroke: #000000" points="762.502,559.403 752.502,564.403 755.002,559.403 752.502,554.403 "/>
  </g>
  <text font-size="5.64436" style="fill: #000000;text-anchor:start;font-family:sans-serif;font-style:normal;font-weight:normal" x="561.131" y="555.121">
    <tspan x="561.131" y="555.121">8) Send [Client_Shared_Key] &amp; [Client_Public_Key]</tspan>
  </text>
  <text font-size="5.64436" style="fill: #000000;text-anchor:start;font-family:sans-serif;font-style:normal;font-weight:normal" x="771.469" y="586.642">
    <tspan x="771.469" y="586.642">9) Match by [Client_Public_Key] in order to</tspan>
    <tspan x="771.469" y="593.698">    found the key pairs inside database </tspan>
  </text>
  <text font-size="5.64436" style="fill: #000000;text-anchor:start;font-family:sans-serif;font-style:normal;font-weight:normal" x="709.947" y="614.487">
    <tspan x="709.947" y="614.487">10) Bring key pairs</tspan>
  </text>
  <text font-size="5.64436" style="fill: #000000;text-anchor:start;font-family:sans-serif;font-style:normal;font-weight:normal" x="710.304" y="626.056">
    <tspan x="710.304" y="626.056">11) Create [Server_Shared_Key] by</tspan>
    <tspan x="710.304" y="633.112">      HMAC([Server_Key], [Client_Private_Key])</tspan>
  </text>
  <text font-size="5.64436" style="fill: #000000;text-anchor:start;font-family:sans-serif;font-style:normal;font-weight:normal" x="915.575" y="480.395">
    <tspan x="915.575" y="480.395">[Client_Public_Key]: -15af2b946b069d-5mQykkuMm</tspan>
    <tspan x="915.575" y="487.45">                                F8UDZIuZkG8AdFfB3udhYkGW-</tspan>
  </text>
  <text font-size="5.64436" style="fill: #000000;text-anchor:start;font-family:sans-serif;font-style:normal;font-weight:normal" x="915.719" y="504.469">
    <tspan x="915.719" y="504.469">[Client_Private_Key]: -17AKPqotjcQBjzmdktluKiR5qU</tspan>
    <tspan x="915.719" y="511.525">                                  byyzqWov-15af2b946b0c4-</tspan>
  </text>
  <g>
    <line style="fill: none; fill-opacity:0; stroke-width: 2; stroke: #000000" x1="885.635" y1="679.906" x2="616.052" y2="679.774"/>
    <polygon style="fill: #000000" points="608.552,679.771 618.555,674.775 616.052,679.774 618.55,684.775 "/>
    <polygon style="fill: none; fill-opacity:0; stroke-width: 2; stroke: #000000" points="608.552,679.771 618.555,674.775 616.052,679.774 618.55,684.775 "/>
  </g>
  <text font-size="5.64436" style="fill: #000000;text-anchor:start;font-family:sans-serif;font-style:normal;font-weight:normal" x="710.304" y="645.313">
    <tspan x="710.304" y="645.313">12) [Server_Shared_Key]: 9f9de38c4405a747fc25dd146b2ee6a3</tspan>
    <tspan x="710.304" y="652.369">                                         0e8ea627c7da26d5a616c4c2fcb9ec89</tspan>
    <tspan x="710.304" y="659.424">                                         6b4020febcb4971a65b97959c5d5625a</tspan>
  </text>
  <text font-size="5.64436" style="fill: #000000;text-anchor:start;font-family:sans-serif;font-style:normal;font-weight:normal" x="711.129" y="676.216">
    <tspan x="711.129" y="676.216">13) Send OK if [Server_Shared_Key] == [Client_Shared_Key]</tspan>
  </text>
  <g>
    <line style="fill: none; fill-opacity:0; stroke-width: 2; stroke: #000000" x1="765.957" y1="597.23" x2="959.514" y2="597.23"/>
    <polygon style="fill: #000000" points="967.014,597.23 957.014,602.23 959.514,597.23 957.014,592.23 "/>
    <polygon style="fill: none; fill-opacity:0; stroke-width: 2; stroke: #000000" points="967.014,597.23 957.014,602.23 959.514,597.23 957.014,592.23 "/>
  </g>
  <g>
    <path style="fill: #b7b796" d="M 779.166 533.379 L 795.711,533.379 L 795.711,498.097 L 779.166,498.097 L 779.166,533.379z"/>
    <path style="fill: none; fill-opacity:0; stroke-width: 0.02; stroke: #000000" d="M 779.166 533.379 L 795.711,533.379 L 795.711,498.097 L 779.166,498.097 L 779.166,533.379"/>
    <path style="fill: none; fill-opacity:0; stroke-width: 0.2; stroke: #494936" d="M 779.166 533.379 L 795.711,533.379 L 795.711,498.097 L 779.166,498.097 L 779.166,533.379"/>
    <path style="fill: #c9c9b6" d="M 779.166 498.097 L 782.327,494.956 L 798.279,494.956 L 795.711,498.097 L 779.166,498.097z"/>
    <path style="fill: none; fill-opacity:0; stroke-width: 0.02; stroke: #000000" d="M 779.166 498.097 L 782.327,494.956 L 798.279,494.956 L 795.711,498.097 L 779.166,498.097"/>
    <path style="fill: none; fill-opacity:0; stroke-width: 0.2; stroke: #494936" d="M 779.166 498.097 L 782.327,494.956 L 798.279,494.956 L 795.711,498.097 L 779.166,498.097"/>
    <path style="fill: #7a7a5a" d="M 795.71 533.379 L 798.278,528.488 L 798.278,494.955 L 795.71,498.096 L 795.71,533.378 L 795.71,533.379z"/>
    <path style="fill: none; fill-opacity:0; stroke-width: 0.02; stroke: #000000" d="M 795.71 533.379 L 798.278,528.488 L 798.278,494.955 L 795.71,498.096 L 795.71,533.378 L 795.71,533.379"/>
    <path style="fill: none; fill-opacity:0; stroke-width: 0.2; stroke: #494936" d="M 795.71 533.379 L 798.278,528.488 L 798.278,494.955 L 795.71,498.096 L 795.71,533.378"/>
    <path style="fill: #b7b796" d="M 797.027 534.955 L 795.711,533.379 L 779.166,533.379 L 777.58,534.955 L 797.027,534.955 L 797.027,534.955z"/>
    <path style="fill: none; fill-opacity:0; stroke-width: 0.02; stroke: #000000" d="M 797.027 534.955 L 795.711,533.379 L 779.166,533.379 L 777.58,534.955 L 797.027,534.955 L 797.027,534.955"/>
    <path style="fill: none; fill-opacity:0; stroke-width: 0.2; stroke: #494936" d="M 797.027 534.955 L 795.711,533.379 L 779.166,533.379 L 777.58,534.955 L 797.027,534.955"/>
    <path style="fill: #b7b796" d="M 797.027 534.955 L 799.586,529.481 L 798.278,528.488 L 795.71,533.379 L 797.026,534.955 L 797.027,534.955z"/>
    <path style="fill: none; fill-opacity:0; stroke-width: 0.02; stroke: #000000" d="M 797.027 534.955 L 799.586,529.481 L 798.278,528.488 L 795.71,533.379 L 797.026,534.955 L 797.027,534.955"/>
    <path style="fill: none; fill-opacity:0; stroke-width: 0.2; stroke: #494936" d="M 797.027 534.955 L 799.586,529.481 L 798.278,528.488 L 795.71,533.379 L 797.026,534.955"/>
    <path style="fill: #b7b796" d="M 795.71 533.379 L 779.165,533.379 L 795.71,533.379z"/>
    <path style="fill: none; fill-opacity:0; stroke-width: 0.2; stroke: #494936" d="M 795.71 533.379 L 779.165,533.379"/>
    <path style="fill: #b7b796" d="M 798.278 528.488 L 795.71,533.379 L 798.278,528.488z"/>
    <path style="fill: none; fill-opacity:0; stroke-width: 0.2; stroke: #494936" d="M 798.278 528.488 L 795.71,533.379"/>
    <path style="fill: #b7b796" d="M 779.174 499.724 L 795.645,499.724 L 779.174,499.724z"/>
    <path style="fill: none; fill-opacity:0; stroke-width: 0.2; stroke: #494936" d="M 779.174 499.724 L 795.645,499.724"/>
    <path style="fill: #b7b796" d="M 779.16 499.924 L 795.631,499.924 L 779.16,499.924z"/>
    <path style="fill: none; fill-opacity:0; stroke-width: 0.2; stroke: #494936" d="M 779.16 499.924 L 795.631,499.924"/>
    <path style="fill: #b7b796" d="M 792.282 504.147 L 780.278,504.147 L 780.278,505.252 L 782.496,505.252 L 792.282,504.147z"/>
    <path style="fill: none; fill-opacity:0; stroke-width: 0.2; stroke: #494936" d="M 792.282 504.147 L 780.278,504.147 L 780.278,505.252 L 782.496,505.252"/>
    <path style="fill: #b7b796" d="M 792.282 506.195 L 780.278,506.195 L 780.278,507.3 L 782.496,507.3 L 792.282,506.195z"/>
    <path style="fill: none; fill-opacity:0; stroke-width: 0.2; stroke: #494936" d="M 792.282 506.195 L 780.278,506.195 L 780.278,507.3 L 782.496,507.3"/>
    <path style="fill: #b7b796" d="M 792.282 508.245 L 780.278,508.245 L 780.278,509.35 L 782.496,509.35 L 792.282,508.245z"/>
    <path style="fill: none; fill-opacity:0; stroke-width: 0.2; stroke: #494936" d="M 792.282 508.245 L 780.278,508.245 L 780.278,509.35 L 782.496,509.35"/>
    <path style="fill: #b7b796" d="M 792.282 510.293 L 780.278,510.293 L 780.278,511.398 L 782.496,511.398 L 792.282,510.293z"/>
    <path style="fill: none; fill-opacity:0; stroke-width: 0.2; stroke: #494936" d="M 792.282 510.293 L 780.278,510.293 L 780.278,511.398 L 782.496,511.398"/>
    <path style="fill: #b7b796" d="M 792.282 512.343 L 780.278,512.343 L 780.278,513.447 L 782.496,513.447 L 792.282,512.343z"/>
    <path style="fill: none; fill-opacity:0; stroke-width: 0.2; stroke: #494936" d="M 792.282 512.343 L 780.278,512.343 L 780.278,513.447 L 782.496,513.447"/>
    <path style="fill: #b7b796" d="M 792.282 514.391 L 780.278,514.391 L 780.278,515.496 L 782.496,515.496 L 792.282,514.391z"/>
    <path style="fill: none; fill-opacity:0; stroke-width: 0.2; stroke: #494936" d="M 792.282 514.391 L 780.278,514.391 L 780.278,515.496 L 782.496,515.496"/>
    <path style="fill: #b7b796" d="M 792.282 516.439 L 780.278,516.439 L 780.278,517.544 L 782.496,517.544 L 792.282,516.439z"/>
    <path style="fill: none; fill-opacity:0; stroke-width: 0.2; stroke: #494936" d="M 792.282 516.439 L 780.278,516.439 L 780.278,517.544 L 782.496,517.544"/>
    <path style="fill: #b7b796" d="M 792.282 518.489 L 780.278,518.489 L 780.278,519.594 L 782.496,519.594 L 792.282,518.489z"/>
    <path style="fill: none; fill-opacity:0; stroke-width: 0.2; stroke: #494936" d="M 792.282 518.489 L 780.278,518.489 L 780.278,519.594 L 782.496,519.594"/>
    <path style="fill: #b7b796" d="M 792.282 520.537 L 780.278,520.537 L 780.278,521.642 L 782.496,521.642 L 792.282,520.537z"/>
    <path style="fill: none; fill-opacity:0; stroke-width: 0.2; stroke: #494936" d="M 792.282 520.537 L 780.278,520.537 L 780.278,521.642 L 782.496,521.642"/>
    <path style="fill: #b7b796" d="M 792.282 522.587 L 780.278,522.587 L 780.278,523.692 L 782.496,523.692 L 792.282,522.587z"/>
    <path style="fill: none; fill-opacity:0; stroke-width: 0.2; stroke: #494936" d="M 792.282 522.587 L 780.278,522.587 L 780.278,523.692 L 782.496,523.692"/>
    <path style="fill: #b7b796" d="M 792.282 524.635 L 780.278,524.635 L 780.278,525.74 L 782.496,525.74 L 792.282,524.635z"/>
    <path style="fill: none; fill-opacity:0; stroke-width: 0.2; stroke: #494936" d="M 792.282 524.635 L 780.278,524.635 L 780.278,525.74 L 782.496,525.74"/>
    <path style="fill: #b7b796" d="M 792.282 526.684 L 780.278,526.684 L 780.278,527.788 L 782.496,527.788 L 792.282,526.684z"/>
    <path style="fill: none; fill-opacity:0; stroke-width: 0.2; stroke: #494936" d="M 792.282 526.684 L 780.278,526.684 L 780.278,527.788 L 782.496,527.788"/>
    <path style="fill: #b7b796" d="M 792.282 528.733 L 780.278,528.733 L 780.278,529.838 L 782.496,529.838 L 792.282,528.733z"/>
    <path style="fill: none; fill-opacity:0; stroke-width: 0.2; stroke: #494936" d="M 792.282 528.733 L 780.278,528.733 L 780.278,529.838 L 782.496,529.838"/>
    <path style="fill: #b7b796" d="M 792.282 530.781 L 780.278,530.781 L 780.278,531.886 L 782.496,531.886 L 792.282,530.781z"/>
    <path style="fill: none; fill-opacity:0; stroke-width: 0.2; stroke: #494936" d="M 792.282 530.781 L 780.278,530.781 L 780.278,531.886 L 782.496,531.886"/>
  </g>
  <g>
    <line style="fill: none; fill-opacity:0; stroke-width: 2; stroke: #000000" x1="764.036" y1="391.592" x2="957.593" y2="391.592"/>
    <polygon style="fill: #000000" points="965.093,391.592 955.093,396.592 957.593,391.592 955.093,386.592 "/>
    <polygon style="fill: none; fill-opacity:0; stroke-width: 2; stroke: #000000" points="965.093,391.592 955.093,396.592 957.593,391.592 955.093,386.592 "/>
  </g>
  <text font-size="12.7998" style="fill: #000000;text-anchor:start;font-family:sans-serif;font-style:normal;font-weight:normal" x="541.905" y="719.435">
    <tspan x="541.905" y="719.435">Impersonate Protection Algorithm(IPA): it's a way that generate a Token on the fly which it does</tspan>
    <tspan x="541.905" y="735.435">                                                               protect all users tokens if a database breach occurred.</tspan>
  </text>
  <text font-size="12.7998" style="fill: #000000;text-anchor:start;font-family:sans-serif;font-style:normal;font-weight:normal" x="537.492" y="781.412">
    <tspan x="537.492" y="781.412">By Abdelaziz Elrashed &lt;aeemh.sdn@gmail.com&gt;</tspan>
  </text>
  <text font-size="12.7998" style="fill: #000000;text-anchor:start;font-family:sans-serif;font-style:normal;font-weight:normal" x="538.263" y="798.376">
    <tspan x="538.263" y="798.376">Library designed with that goal https://github.com/vzool/api-hmac-guard</tspan>
  </text>
  <g>
    <line style="fill: none; fill-opacity:0; stroke-width: 2; stroke: #000000" x1="965.551" y1="612.741" x2="778.788" y2="612.266"/>
    <polygon style="fill: #000000" points="771.289,612.247 781.301,607.273 778.788,612.266 781.276,617.273 "/>
    <polygon style="fill: none; fill-opacity:0; stroke-width: 2; stroke: #000000" points="771.289,612.247 781.301,607.273 778.788,612.266 781.276,617.273 "/>
  </g>
</svg>
